u2194_ 600 - 100.ufo
<glyph name="dollar" format="1">
  <advance width="901"/>
  <unicode hex="0024"/>
  <outline>
    <contour>
      <point x="551" y="-1" type="curve" smooth="yes"/>
      <point x="551" y="43" type="line"/>
      <point x="731" y="18" type="line" smooth="yes"/>
      <point x="846" y="3"/>
      <point x="895" y="145"/>
      <point x="795" y="204" type="curve" smooth="yes"/>
      <point x="551" y="346" type="line"/>
      <point x="551" y="425" type="line"/>
      <point x="783" y="504" type="line" smooth="yes"/>
      <point x="834" y="522"/>
      <point x="863" y="580"/>
      <point x="846" y="631" type="curve" smooth="yes"/>
      <point x="828" y="682"/>
      <point x="770" y="711"/>
      <point x="719" y="694" type="curve" smooth="yes"/>
      <point x="551" y="636" type="line"/>
      <point x="551" y="799" type="line" smooth="yes"/>
      <point x="551" y="853"/>
      <point x="505" y="899"/>
      <point x="451" y="899" type="curve" smooth="yes"/>
      <point x="397" y="899"/>
      <point x="351" y="853"/>
      <point x="351" y="799" type="curve" smooth="yes"/>
      <point x="351" y="568" type="line"/>
      <point x="195" y="514" type="line" smooth="yes"/>
      <point x="106" y="484"/>
      <point x="96" y="381"/>
      <point x="177" y="333" type="curve" smooth="yes"/>
      <point x="260" y="285" type="line"/>
      <point x="164" y="298" type="line" smooth="yes"/>
      <point x="110" y="305"/>
      <point x="58" y="266"/>
      <point x="51" y="213" type="curve" smooth="yes"/>
      <point x="44" y="159"/>
      <point x="83" y="107"/>
      <point x="136" y="100" type="curve" smooth="yes"/>
      <point x="351" y="71" type="line"/>
      <point x="351" y="-1" type="line" smooth="yes"/>
      <point x="351" y="-55"/>
      <point x="397" y="-101"/>
      <point x="451" y="-101" type="curve" smooth="yes"/>
      <point x="505" y="-101"/>
      <point x="551" y="-55"/>
    </contour>
  </outline>
</glyph>
<glyph name="percent" format="1">
  <advance width="898"/>
  <unicode hex="0025"/>
  <outline>
    <contour>
      <point x="349" y="899" type="curve" smooth="yes"/>
      <point x="295" y="899"/>
      <point x="249" y="853"/>
      <point x="249" y="799" type="curve" smooth="yes"/>
      <point x="249" y="789" type="line" smooth="yes"/>
      <point x="249" y="735"/>
      <point x="295" y="689"/>
      <point x="349" y="689" type="curve" smooth="yes"/>
      <point x="403" y="689"/>
      <point x="449" y="735"/>
      <point x="449" y="789" type="curve" smooth="yes"/>
      <point x="449" y="799" type="line" smooth="yes"/>
      <point x="449" y="853"/>
      <point x="403" y="899"/>
    </contour>
    <contour>
      <point x="229" y="-61" type="curve" smooth="yes"/>
      <point x="829" y="739" type="line" smooth="yes"/>
      <point x="861" y="782"/>
      <point x="852" y="847"/>
      <point x="809" y="879" type="curve" smooth="yes"/>
      <point x="766" y="911"/>
      <point x="701" y="902"/>
      <point x="669" y="859" type="curve" smooth="yes"/>
      <point x="69" y="59" type="line" smooth="yes"/>
      <point x="37" y="16"/>
      <point x="46" y="-49"/>
      <point x="89" y="-81" type="curve" smooth="yes"/>
      <point x="132" y="-113"/>
      <point x="197" y="-104"/>
    </contour>
    <contour>
      <point x="549" y="-101" type="curve" smooth="yes"/>
      <point x="603" y="-101"/>
      <point x="649" y="-55"/>
      <point x="649" y="-1" type="curve" smooth="yes"/>
      <point x="649" y="9" type="line" smooth="yes"/>
      <point x="649" y="63"/>
      <point x="603" y="109"/>
      <point x="549" y="109" type="curve" smooth="yes"/>
      <point x="495" y="109"/>
      <point x="449" y="63"/>
      <point x="449" y="9" type="curve" smooth="yes"/>
      <point x="449" y="-1" type="line" smooth="yes"/>
      <point x="449" y="-55"/>
      <point x="495" y="-101"/>
    </contour>
  </outline>
</glyph>
<glyph name="comma" format="1">
  <advance width="399"/>
  <unicode hex="002C"/>
  <outline>
    <contour>
      <point x="295" y="231" type="curve" smooth="yes"/>
      <point x="246" y="256"/>
      <point x="185" y="235"/>
      <point x="161" y="187" type="curve" smooth="yes"/>
      <point x="61" y="-13" type="line" smooth="yes"/>
      <point x="36" y="-62"/>
      <point x="57" y="-123"/>
      <point x="105" y="-147" type="curve" smooth="yes"/>
      <point x="154" y="-172"/>
      <point x="215" y="-151"/>
      <point x="239" y="-103" type="curve" smooth="yes"/>
      <point x="339" y="97" type="line" smooth="yes"/>
      <point x="364" y="146"/>
      <point x="343" y="207"/>
    </contour>
  </outline>
</glyph>
<glyph name="zero" format="1">
  <advance width="900"/>
  <unicode hex="0030"/>
  <outline>
    <contour>
      <point x="278" y="337" type="line"/>
      <point x="336" y="621" type="line"/>
      <point x="437" y="547" type="line"/>
    </contour>
    <contour>
      <point x="574" y="397" type="line"/>
      <point x="598" y="429" type="line"/>
      <point x="601" y="427" type="line"/>
    </contour>
    <contour>
      <point x="421" y="-70" type="curve" smooth="yes"/>
      <point x="427" y="-65"/>
      <point x="432" y="-59"/>
      <point x="436" y="-52" type="curve"/>
      <point x="824" y="375" type="line" smooth="yes"/>
      <point x="865" y="420"/>
      <point x="858" y="487"/>
      <point x="809" y="523" type="curve" smooth="yes"/>
      <point x="719" y="588" type="line"/>
      <point x="784" y="674" type="line" smooth="yes"/>
      <point x="816" y="717"/>
      <point x="807" y="781"/>
      <point x="764" y="814" type="curve" smooth="yes"/>
      <point x="721" y="846"/>
      <point x="657" y="837"/>
      <point x="624" y="794" type="curve" smooth="yes"/>
      <point x="558" y="707" type="line"/>
      <point x="328" y="874" type="line" smooth="yes"/>
      <point x="265" y="921"/>
      <point x="187" y="891"/>
      <point x="171" y="814" type="curve" smooth="yes"/>
      <point x="52" y="232" type="line" smooth="yes"/>
      <point x="46" y="204"/>
      <point x="58" y="164"/>
      <point x="78" y="143" type="curve" smooth="yes"/>
      <point x="107" y="112" type="line"/>
      <point x="78" y="69"/>
      <point x="88" y="8"/>
      <point x="130" y="-24" type="curve" smooth="yes"/>
      <point x="163" y="-49"/>
      <point x="208" y="-49"/>
      <point x="243" y="-29" type="curve"/>
      <point x="268" y="-55" type="line"/>
      <point x="272" y="-61"/>
      <point x="277" y="-67"/>
      <point x="283" y="-72" type="curve" smooth="yes"/>
      <point x="302" y="-89"/>
      <point x="327" y="-98"/>
      <point x="351" y="-97" type="curve"/>
      <point x="377" y="-98"/>
      <point x="402" y="-89"/>
    </contour>
  </outline>
</glyph>
<glyph name="one" format="1">
  <advance width="900"/>
  <unicode hex="0031"/>
  <outline>
    <contour>
      <point x="150" y="-99" type="curve" smooth="yes"/>
      <point x="750" y="-99" type="line" smooth="yes"/>
      <point x="804" y="-99"/>
      <point x="850" y="-53"/>
      <point x="850" y="1" type="curve" smooth="yes"/>
      <point x="850" y="55"/>
      <point x="804" y="101"/>
      <point x="750" y="101" type="curve" smooth="yes"/>
      <point x="392" y="101" type="line"/>
      <point x="544" y="527" type="line" smooth="yes"/>
      <point x="567" y="590"/>
      <point x="529" y="651"/>
      <point x="463" y="660" type="curve" smooth="yes"/>
      <point x="163" y="700" type="line" smooth="yes"/>
      <point x="110" y="707"/>
      <point x="58" y="668"/>
      <point x="51" y="614" type="curve" smooth="yes"/>
      <point x="44" y="561"/>
      <point x="83" y="509"/>
      <point x="137" y="502" type="curve" smooth="yes"/>
      <point x="314" y="478" type="line"/>
      <point x="180" y="101" type="line"/>
      <point x="150" y="101" type="line" smooth="yes"/>
      <point x="96" y="101"/>
      <point x="50" y="55"/>
      <point x="50" y="1" type="curve" smooth="yes"/>
      <point x="50" y="-53"/>
      <point x="96" y="-99"/>
    </contour>
  </outline>
</glyph>
<glyph name="two" format="1">
  <advance width="905"/>
  <unicode hex="0032"/>
  <outline>
    <contour>
      <point x="155" y="-100" type="curve" smooth="yes"/>
      <point x="755" y="-100" type="line" smooth="yes"/>
      <point x="809" y="-100"/>
      <point x="855" y="-54"/>
      <point x="855" y="0" type="curve" smooth="yes"/>
      <point x="855" y="54"/>
      <point x="809" y="100"/>
      <point x="755" y="100" type="curve" smooth="yes"/>
      <point x="415" y="100" type="line"/>
      <point x="665" y="327" type="line" smooth="yes"/>
      <point x="723" y="379"/>
      <point x="710" y="460"/>
      <point x="639" y="492" type="curve" smooth="yes"/>
      <point x="196" y="691" type="line" smooth="yes"/>
      <point x="147" y="713"/>
      <point x="86" y="690"/>
      <point x="64" y="641" type="curve" smooth="yes"/>
      <point x="42" y="592"/>
      <point x="65" y="531"/>
      <point x="114" y="509" type="curve" smooth="yes"/>
      <point x="418" y="372" type="line"/>
      <point x="88" y="74" type="line" smooth="yes"/>
      <point x="14" y="7"/>
      <point x="55" y="-100"/>
    </contour>
  </outline>
</glyph>
<glyph name="three" format="1">
  <advance width="900"/>
  <unicode hex="0033"/>
  <outline>
    <contour>
      <point x="748" y="-4" type="curve" smooth="yes"/>
      <point x="849" y="584" type="line" smooth="yes"/>
      <point x="859" y="648"/>
      <point x="814" y="701"/>
      <point x="750" y="701" type="curve" smooth="yes"/>
      <point x="150" y="701" type="line" smooth="yes"/>
      <point x="96" y="701"/>
      <point x="50" y="655"/>
      <point x="50" y="601" type="curve" smooth="yes"/>
      <point x="50" y="547"/>
      <point x="96" y="501"/>
      <point x="150" y="501" type="curve" smooth="yes"/>
      <point x="631" y="501" type="line"/>
      <point x="571" y="149" type="line"/>
      <point x="185" y="295" type="line" smooth="yes"/>
      <point x="135" y="314"/>
      <point x="75" y="287"/>
      <point x="56" y="236" type="curve" smooth="yes"/>
      <point x="37" y="186"/>
      <point x="64" y="126"/>
      <point x="115" y="107" type="curve" smooth="yes"/>
      <point x="614" y="-81" type="line" smooth="yes"/>
      <point x="676" y="-104"/>
      <point x="737" y="-69"/>
    </contour>
  </outline>
</glyph>
<glyph name="four" format="1">
  <advance width="861"/>
  <unicode hex="0034"/>
  <outline>
    <contour>
      <point x="711" y="-99" type="curve" smooth="yes"/>
      <point x="765" y="-99"/>
      <point x="811" y="-53"/>
      <point x="811" y="1" type="curve" smooth="yes"/>
      <point x="811" y="600" type="line" smooth="yes"/>
      <point x="811" y="654"/>
      <point x="765" y="700"/>
      <point x="711" y="700" type="curve" smooth="yes"/>
      <point x="657" y="700"/>
      <point x="611" y="654"/>
      <point x="611" y="600" type="curve" smooth="yes"/>
      <point x="611" y="242" type="line"/>
      <point x="293" y="356" type="line"/>
      <point x="500" y="754" type="line" smooth="yes"/>
      <point x="525" y="802"/>
      <point x="505" y="864"/>
      <point x="457" y="889" type="curve" smooth="yes"/>
      <point x="409" y="914"/>
      <point x="347" y="894"/>
      <point x="322" y="846" type="curve" smooth="yes"/>
      <point x="62" y="346" type="line" smooth="yes"/>
      <point x="33" y="291"/>
      <point x="58" y="227"/>
      <point x="117" y="206" type="curve" smooth="yes"/>
      <point x="611" y="30" type="line"/>
      <point x="611" y="1" type="line" smooth="yes"/>
      <point x="611" y="-53"/>
      <point x="657" y="-99"/>
    </contour>
  </outline>
</glyph>
<glyph name="five" format="1">
  <advance width="904"/>
  <unicode hex="0035"/>
  <outline>
    <contour>
      <point x="150" y="101" type="curve" smooth="yes"/>
      <point x="750" y="101" type="line" smooth="yes"/>
      <point x="868" y="101"/>
      <point x="895" y="255"/>
      <point x="784" y="295" type="curve" smooth="yes"/>
      <point x="381" y="439" type="line"/>
      <point x="669" y="701" type="line"/>
      <point x="750" y="701" type="line" smooth="yes"/>
      <point x="804" y="701"/>
      <point x="850" y="747"/>
      <point x="850" y="801" type="curve" smooth="yes"/>
      <point x="850" y="855"/>
      <point x="804" y="901"/>
      <point x="750" y="901" type="curve" smooth="yes"/>
      <point x="630" y="901" type="line" smooth="yes"/>
      <point x="609" y="901"/>
      <point x="579" y="889"/>
      <point x="563" y="875" type="curve" smooth="yes"/>
      <point x="123" y="475" type="line" smooth="yes"/>
      <point x="62" y="420"/>
      <point x="79" y="334"/>
      <point x="156" y="307" type="curve" smooth="yes"/>
      <point x="173" y="301" type="line"/>
      <point x="150" y="301" type="line" smooth="yes"/>
      <point x="96" y="301"/>
      <point x="50" y="255"/>
      <point x="50" y="201" type="curve" smooth="yes"/>
      <point x="50" y="147"/>
      <point x="96" y="101"/>
    </contour>
  </outline>
</glyph>
<glyph name="six" format="1">
  <advance width="905"/>
  <unicode hex="0036"/>
  <outline>
    <contour>
      <point x="739" y="455" type="curve" smooth="yes"/>
      <point x="604" y="520" type="line"/>
      <point x="699" y="519" type="line"/>
      <point x="715" y="507"/>
      <point x="736" y="501"/>
      <point x="757" y="501" type="curve" smooth="yes"/>
      <point x="811" y="502"/>
      <point x="856" y="549"/>
      <point x="855" y="603" type="curve" smooth="yes"/>
      <point x="855" y="621" type="line" smooth="yes"/>
      <point x="854" y="675"/>
      <point x="809" y="719"/>
      <point x="755" y="719" type="curve" smooth="yes"/>
      <point x="156" y="722" type="line" smooth="yes"/>
      <point x="74" y="722"/>
      <point x="34" y="649"/>
      <point x="56" y="590" type="curve"/>
      <point x="60" y="555"/>
      <point x="82" y="524"/>
      <point x="115" y="509" type="curve" smooth="yes"/>
      <point x="657" y="273" type="line" smooth="yes"/>
      <point x="777" y="221"/>
      <point x="858" y="399"/>
    </contour>
  </outline>
</glyph>
<glyph name="seven" format="1">
  <advance width="827"/>
  <unicode hex="0037"/>
  <outline>
    <contour>
      <point x="433" y="-58" type="curve" smooth="yes"/>
      <point x="760" y="433" type="line" smooth="yes"/>
      <point x="792" y="481"/>
      <point x="778" y="544"/>
      <point x="729" y="574" type="curve" smooth="yes"/>
      <point x="222" y="882" type="line" smooth="yes"/>
      <point x="209" y="890"/>
      <point x="185" y="897"/>
      <point x="170" y="897" type="curve" smooth="yes"/>
      <point x="150" y="897" type="line" smooth="yes"/>
      <point x="96" y="897"/>
      <point x="50" y="851"/>
      <point x="50" y="797" type="curve" smooth="yes"/>
      <point x="50" y="746"/>
      <point x="91" y="702"/>
      <point x="141" y="697" type="curve"/>
      <point x="536" y="457" type="line"/>
      <point x="267" y="52" type="line" smooth="yes"/>
      <point x="237" y="7"/>
      <point x="250" y="-56"/>
      <point x="295" y="-86" type="curve" smooth="yes"/>
      <point x="340" y="-116"/>
      <point x="403" y="-103"/>
    </contour>
  </outline>
</glyph>
<glyph name="nine" format="1">
  <advance width="905"/>
  <unicode hex="0039"/>
  <outline>
    <contour>
      <point x="749" y="79" type="line" smooth="yes"/>
      <point x="831" y="79"/>
      <point x="871" y="152"/>
      <point x="849" y="211" type="curve"/>
      <point x="845" y="246"/>
      <point x="823" y="277"/>
      <point x="790" y="292" type="curve" smooth="yes"/>
      <point x="248" y="528" type="line" smooth="yes"/>
      <point x="128" y="580"/>
      <point x="47" y="402"/>
      <point x="166" y="346" type="curve" smooth="yes"/>
      <point x="301" y="281" type="line"/>
      <point x="206" y="282" type="line"/>
      <point x="190" y="294"/>
      <point x="169" y="300"/>
      <point x="148" y="300" type="curve" smooth="yes"/>
      <point x="94" y="299"/>
      <point x="49" y="252"/>
      <point x="50" y="198" type="curve" smooth="yes"/>
      <point x="50" y="180" type="line" smooth="yes"/>
      <point x="51" y="126"/>
      <point x="96" y="82"/>
      <point x="150" y="82" type="curve" smooth="yes"/>
    </contour>
  </outline>
</glyph>
<glyph name="semicolon" format="1">
  <advance width="400"/>
  <unicode hex="003B"/>
  <outline>
    <contour>
      <point x="250" y="483" type="curve" smooth="yes"/>
      <point x="304" y="483"/>
      <point x="350" y="529"/>
      <point x="350" y="583" type="curve" smooth="yes"/>
      <point x="350" y="592" type="line" smooth="yes"/>
      <point x="350" y="646"/>
      <point x="304" y="692"/>
      <point x="250" y="692" type="curve" smooth="yes"/>
      <point x="196" y="692"/>
      <point x="150" y="646"/>
      <point x="150" y="592" type="curve" smooth="yes"/>
      <point x="150" y="583" type="line" smooth="yes"/>
      <point x="150" y="529"/>
      <point x="196" y="483"/>
    </contour>
    <contour>
      <point x="295" y="281" type="curve" smooth="yes"/>
      <point x="246" y="306"/>
      <point x="185" y="285"/>
      <point x="161" y="237" type="curve" smooth="yes"/>
      <point x="61" y="37" type="line" smooth="yes"/>
      <point x="36" y="-12"/>
      <point x="57" y="-73"/>
      <point x="105" y="-97" type="curve" smooth="yes"/>
      <point x="154" y="-122"/>
      <point x="215" y="-101"/>
      <point x="239" y="-53" type="curve" smooth="yes"/>
      <point x="339" y="147" type="line" smooth="yes"/>
      <point x="364" y="196"/>
      <point x="343" y="257"/>
    </contour>
  </outline>
</glyph>
<glyph name="question" format="1">
  <advance width="773"/>
  <unicode hex="003F"/>
  <outline>
    <contour>
      <point x="349" y="-100" type="curve" smooth="yes"/>
      <point x="403" y="-100"/>
      <point x="449" y="-54"/>
      <point x="449" y="0" type="curve" smooth="yes"/>
      <point x="449" y="11" type="line" smooth="yes"/>
      <point x="449" y="54"/>
      <point x="420" y="92"/>
      <point x="380" y="106" type="curve"/>
      <point x="404" y="114"/>
      <point x="426" y="131"/>
      <point x="438" y="154" type="curve" smooth="yes"/>
      <point x="710" y="685" type="line" smooth="yes"/>
      <point x="754" y="769"/>
      <point x="686" y="852"/>
      <point x="595" y="827" type="curve" smooth="yes"/>
      <point x="123" y="695" type="line" smooth="yes"/>
      <point x="71" y="681"/>
      <point x="39" y="624"/>
      <point x="54" y="572" type="curve" smooth="yes"/>
      <point x="68" y="520"/>
      <point x="125" y="488"/>
      <point x="177" y="503" type="curve" smooth="yes"/>
      <point x="428" y="573" type="line"/>
      <point x="260" y="246" type="line" smooth="yes"/>
      <point x="235" y="198"/>
      <point x="255" y="136"/>
      <point x="303" y="111" type="curve" smooth="yes"/>
      <point x="308" y="109"/>
      <point x="312" y="107"/>
      <point x="317" y="105" type="curve"/>
      <point x="278" y="92"/>
      <point x="249" y="54"/>
      <point x="249" y="11" type="curve" smooth="yes"/>
      <point x="249" y="0" type="line" smooth="yes"/>
      <point x="249" y="-54"/>
      <point x="295" y="-100"/>
    </contour>
  </outline>
</glyph>
<glyph name="at" format="1">
  <advance width="791"/>
  <unicode hex="0040"/>
  <outline>
    <contour>
      <point x="618" y="-116" type="curve" smooth="yes"/>
      <point x="658" y="-80"/>
      <point x="661" y="-15"/>
      <point x="625" y="25" type="curve" smooth="yes"/>
      <point x="588" y="66" type="line"/>
      <point x="625" y="81"/>
      <point x="651" y="117"/>
      <point x="651" y="158" type="curve" smooth="yes"/>
      <point x="651" y="316" type="line"/>
      <point x="738" y="725" type="line" smooth="yes"/>
      <point x="759" y="822"/>
      <point x="664" y="885"/>
      <point x="583" y="828" type="curve" smooth="yes"/>
      <point x="93" y="482" type="line" smooth="yes"/>
      <point x="43" y="446"/>
      <point x="35" y="379"/>
      <point x="77" y="333" type="curve" smooth="yes"/>
      <point x="477" y="-109" type="line" smooth="yes"/>
      <point x="513" y="-149"/>
      <point x="578" y="-152"/>
    </contour>
    <contour>
      <point x="423" y="249" type="line"/>
      <point x="301" y="384" type="line"/>
      <point x="444" y="485" type="line"/>
    </contour>
  </outline>
</glyph>
<glyph name="A" format="1">
  <advance width="889"/>
  <unicode hex="0041"/>
  <outline>
    <contour>
      <point x="739" y="-104" type="curve" smooth="yes"/>
      <point x="793" y="-104"/>
      <point x="839" y="-58"/>
      <point x="839" y="-4" type="curve" smooth="yes"/>
      <point x="839" y="360" type="line" smooth="yes"/>
      <point x="839" y="382"/>
      <point x="827" y="412"/>
      <point x="812" y="428" type="curve" smooth="yes"/>
      <point x="410" y="864" type="line" smooth="yes"/>
      <point x="354" y="925"/>
      <point x="268" y="906"/>
      <point x="242" y="827" type="curve" smooth="yes"/>
      <point x="56" y="257" type="line" smooth="yes"/>
      <point x="31" y="178"/>
      <point x="90" y="111"/>
      <point x="171" y="128" type="curve" smooth="yes"/>
      <point x="639" y="224" type="line"/>
      <point x="639" y="-4" type="line" smooth="yes"/>
      <point x="639" y="-58"/>
      <point x="685" y="-104"/>
    </contour>
    <contour>
      <point x="300" y="358" type="line"/>
      <point x="379" y="603" type="line"/>
      <point x="556" y="411" type="line"/>
    </contour>
  </outline>
</glyph>
<glyph name="C" format="1">
  <advance width="894"/>
  <unicode hex="0043"/>
  <outline>
    <contour>
      <point x="177" y="-6" type="curve" smooth="yes"/>
      <point x="762" y="100" type="line" smooth="yes"/>
      <point x="815" y="109"/>
      <point x="852" y="163"/>
      <point x="842" y="216" type="curve" smooth="yes"/>
      <point x="833" y="269"/>
      <point x="779" y="306"/>
      <point x="726" y="296" type="curve" smooth="yes"/>
      <point x="258" y="212" type="line"/>
      <point x="252" y="568" type="line"/>
      <point x="730" y="499" type="line" smooth="yes"/>
      <point x="783" y="491"/>
      <point x="835" y="530"/>
      <point x="843" y="584" type="curve" smooth="yes"/>
      <point x="851" y="637"/>
      <point x="812" y="689"/>
      <point x="758" y="697" type="curve" smooth="yes"/>
      <point x="165" y="783" type="line" smooth="yes"/>
      <point x="101" y="792"/>
      <point x="49" y="746"/>
      <point x="50" y="682" type="curve" smooth="yes"/>
      <point x="60" y="91" type="line" smooth="yes"/>
      <point x="61" y="27"/>
      <point x="114" y="-17"/>
    </contour>
  </outline>
</glyph>
<glyph name="D" format="1">
  <advance width="900"/>
  <unicode hex="0044"/>
  <outline>
    <contour>
      <point x="847" y="148" type="curve" smooth="yes"/>
      <point x="850" y="588" type="line" smooth="yes"/>
      <point x="850" y="591"/>
      <point x="850" y="594"/>
      <point x="850" y="596" type="curve"/>
      <point x="851" y="637"/>
      <point x="825" y="679"/>
      <point x="783" y="693" type="curve" smooth="yes"/>
      <point x="218" y="893" type="line" smooth="yes"/>
      <point x="152" y="917"/>
      <point x="89" y="875"/>
      <point x="85" y="805" type="curve" smooth="yes"/>
      <point x="50" y="215" type="line" smooth="yes"/>
      <point x="47" y="162"/>
      <point x="87" y="115"/>
      <point x="140" y="110" type="curve" smooth="yes"/>
      <point x="737" y="49" type="line" smooth="yes"/>
      <point x="797" y="43"/>
      <point x="847" y="88"/>
    </contour>
    <contour>
      <point x="648" y="259" type="line"/>
      <point x="256" y="299" type="line"/>
      <point x="277" y="660" type="line"/>
      <point x="650" y="528" type="line"/>
    </contour>
  </outline>
</glyph>
<glyph name="E" format="1">
  <advance width="850"/>
  <unicode hex="0045"/>
  <outline>
    <contour>
      <point x="573" y="-71" type="curve" smooth="yes"/>
      <point x="771" y="125" type="line" smooth="yes"/>
      <point x="810" y="163"/>
      <point x="810" y="228"/>
      <point x="772" y="266" type="curve" smooth="yes"/>
      <point x="734" y="305"/>
      <point x="669" y="305"/>
      <point x="631" y="267" type="curve" smooth="yes"/>
      <point x="503" y="141" type="line"/>
      <point x="325" y="324" type="line"/>
      <point x="741" y="511" type="line" smooth="yes"/>
      <point x="790" y="533"/>
      <point x="813" y="594"/>
      <point x="791" y="643" type="curve" smooth="yes"/>
      <point x="769" y="692"/>
      <point x="708" y="715"/>
      <point x="659" y="693" type="curve" smooth="yes"/>
      <point x="112" y="448" type="line" smooth="yes"/>
      <point x="44" y="418"/>
      <point x="30" y="341"/>
      <point x="81" y="287" type="curve" smooth="yes"/>
      <point x="429" y="-70" type="line" smooth="yes"/>
      <point x="448" y="-89"/>
      <point x="475" y="-99"/>
      <point x="501" y="-99" type="curve"/>
      <point x="502" y="-99"/>
      <point x="502" y="-99"/>
      <point x="503" y="-99" type="curve"/>
      <point x="503" y="-99"/>
      <point x="504" y="-99"/>
      <point x="504" y="-99" type="curve"/>
      <point x="529" y="-99"/>
      <point x="554" y="-90"/>
    </contour>
  </outline>
</glyph>
<glyph name="F" format="1">
  <advance width="898"/>
  <unicode hex="0046"/>
  <outline>
    <contour>
      <point x="249" y="-16" type="curve" smooth="yes"/>
      <point x="298" y="293" type="line"/>
      <point x="789" y="511" type="line" smooth="yes"/>
      <point x="839" y="532"/>
      <point x="862" y="593"/>
      <point x="840" y="642" type="curve" smooth="yes"/>
      <point x="819" y="692"/>
      <point x="758" y="715"/>
      <point x="709" y="693" type="curve" smooth="yes"/>
      <point x="167" y="454" type="line" smooth="yes"/>
      <point x="140" y="441"/>
      <point x="114" y="408"/>
      <point x="109" y="378" type="curve" smooth="yes"/>
      <point x="51" y="16" type="line" smooth="yes"/>
      <point x="43" y="-38"/>
      <point x="81" y="-90"/>
      <point x="134" y="-99" type="curve" smooth="yes"/>
      <point x="188" y="-107"/>
      <point x="240" y="-69"/>
    </contour>
  </outline>
</glyph>
<glyph name="H" format="1">
  <advance width="900"/>
  <unicode hex="0048"/>
  <outline>
    <contour>
      <point x="750" y="-104" type="curve" smooth="yes"/>
      <point x="804" y="-104"/>
      <point x="850" y="-58"/>
      <point x="850" y="-4" type="curve" smooth="yes"/>
      <point x="850" y="596" type="line" smooth="yes"/>
      <point x="850" y="674"/>
      <point x="781" y="719"/>
      <point x="709" y="687" type="curve" smooth="yes"/>
      <point x="286" y="500" type="line"/>
      <point x="249" y="808" type="line" smooth="yes"/>
      <point x="243" y="862"/>
      <point x="192" y="902"/>
      <point x="138" y="895" type="curve" smooth="yes"/>
      <point x="84" y="889"/>
      <point x="44" y="838"/>
      <point x="51" y="784" type="curve" smooth="yes"/>
      <point x="104" y="342" type="line" smooth="yes"/>
      <point x="113" y="271"/>
      <point x="178" y="233"/>
      <point x="244" y="262" type="curve" smooth="yes"/>
      <point x="650" y="442" type="line"/>
      <point x="650" y="-4" type="line" smooth="yes"/>
      <point x="650" y="-58"/>
      <point x="696" y="-104"/>
    </contour>
  </outline>
</glyph>
<glyph name="I" format="1">
  <advance width="899"/>
  <unicode hex="0049"/>
  <outline>
    <contour>
      <point x="236" y="-52" type="curve" smooth="yes"/>
      <point x="529" y="447" type="line"/>
      <point x="819" y="727" type="line" smooth="yes"/>
      <point x="858" y="765"/>
      <point x="859" y="830"/>
      <point x="822" y="868" type="curve" smooth="yes"/>
      <point x="784" y="907"/>
      <point x="719" y="908"/>
      <point x="681" y="871" type="curve" smooth="yes"/>
      <point x="381" y="582" type="line" smooth="yes"/>
      <point x="375" y="576"/>
      <point x="368" y="567"/>
      <point x="364" y="560" type="curve" smooth="yes"/>
      <point x="64" y="50" type="line" smooth="yes"/>
      <point x="36" y="3"/>
      <point x="53" y="-60"/>
      <point x="99" y="-87" type="curve" smooth="yes"/>
      <point x="146" y="-115"/>
      <point x="209" y="-98"/>
    </contour>
  </outline>
</glyph>
<glyph name="O" format="1">
  <advance width="898"/>
  <unicode hex="004F"/>
  <outline>
    <contour>
      <point x="489" y="124" type="line"/>
      <point x="253" y="209" type="line"/>
      <point x="271" y="602" type="line"/>
      <point x="619" y="494" type="line"/>
    </contour>
    <contour>
      <point x="645" y="-34" type="curve" smooth="yes"/>
      <point x="842" y="526" type="line" smooth="yes"/>
      <point x="861" y="580"/>
      <point x="832" y="638"/>
      <point x="778" y="655" type="curve" smooth="yes"/>
      <point x="207" y="832" type="line" smooth="yes"/>
      <point x="141" y="852"/>
      <point x="80" y="810"/>
      <point x="77" y="741" type="curve" smooth="yes"/>
      <point x="50" y="144" type="line" smooth="yes"/>
      <point x="48" y="104"/>
      <point x="78" y="60"/>
      <point x="116" y="46" type="curve" smooth="yes"/>
      <point x="507" y="-95" type="line" smooth="yes"/>
      <point x="519" y="-100"/>
      <point x="532" y="-101"/>
      <point x="545" y="-101" type="curve"/>
      <point x="588" y="-103"/>
      <point x="631" y="-76"/>
    </contour>
  </outline>
</glyph>
<glyph name="P" format="1">
  <advance width="845"/>
  <unicode hex="0050"/>
  <outline>
    <contour>
      <point x="150" y="-97" type="curve" smooth="yes"/>
      <point x="204" y="-97"/>
      <point x="250" y="-51"/>
      <point x="250" y="3" type="curve" smooth="yes"/>
      <point x="250" y="34" type="line"/>
      <point x="734" y="252" type="line" smooth="yes"/>
      <point x="798" y="281"/>
      <point x="815" y="353"/>
      <point x="770" y="407" type="curve" smooth="yes"/>
      <point x="390" y="865" type="line" smooth="yes"/>
      <point x="335" y="933"/>
      <point x="241" y="913"/>
      <point x="217" y="829" type="curve" smooth="yes"/>
      <point x="54" y="261" type="line" smooth="yes"/>
      <point x="52" y="253"/>
      <point x="50" y="241"/>
      <point x="50" y="233" type="curve" smooth="yes"/>
      <point x="50" y="3" type="line" smooth="yes"/>
      <point x="50" y="-51"/>
      <point x="96" y="-97"/>
    </contour>
    <contour>
      <point x="261" y="259" type="line"/>
      <point x="357" y="592" type="line"/>
      <point x="532" y="380" type="line"/>
    </contour>
  </outline>
</glyph>
<glyph name="R" format="1">
  <advance width="900"/>
  <unicode hex="0052"/>
  <outline>
    <contour>
      <point x="836" y="-55" type="curve" smooth="yes"/>
      <point x="864" y="-8"/>
      <point x="847" y="55"/>
      <point x="801" y="82" type="curve" smooth="yes"/>
      <point x="594" y="204" type="line"/>
      <point x="610" y="216" type="line" smooth="yes"/>
      <point x="653" y="248"/>
      <point x="662" y="313"/>
      <point x="630" y="356" type="curve" smooth="yes"/>
      <point x="598" y="399"/>
      <point x="533" y="408"/>
      <point x="490" y="376" type="curve" smooth="yes"/>
      <point x="439" y="338" type="line"/>
      <point x="423" y="372"/>
      <point x="388" y="396"/>
      <point x="349" y="396" type="curve" smooth="yes"/>
      <point x="239" y="396" type="line" smooth="yes"/>
      <point x="129" y="396"/>
      <point x="94" y="265"/>
      <point x="188" y="210" type="curve" smooth="yes"/>
      <point x="233" y="184" type="line"/>
      <point x="89" y="76" type="line" smooth="yes"/>
      <point x="46" y="44"/>
      <point x="37" y="-21"/>
      <point x="69" y="-64" type="curve" smooth="yes"/>
      <point x="101" y="-107"/>
      <point x="166" y="-116"/>
      <point x="209" y="-84" type="curve" smooth="yes"/>
      <point x="420" y="74" type="line"/>
      <point x="699" y="-90" type="line" smooth="yes"/>
      <point x="746" y="-118"/>
      <point x="809" y="-101"/>
    </contour>
  </outline>
</glyph>
<glyph name="Y" format="1">
  <advance width="621"/>
  <unicode hex="0059"/>
  <outline>
    <contour>
      <point x="217" y="-73" type="curve" smooth="yes"/>
      <point x="539" y="224" type="line" smooth="yes"/>
      <point x="574" y="256"/>
      <point x="581" y="313"/>
      <point x="556" y="352" type="curve" smooth="yes"/>
      <point x="233" y="852" type="line" smooth="yes"/>
      <point x="204" y="898"/>
      <point x="140" y="911"/>
      <point x="95" y="882" type="curve" smooth="yes"/>
      <point x="49" y="853"/>
      <point x="36" y="789"/>
      <point x="65" y="744" type="curve" smooth="yes"/>
      <point x="342" y="315" type="line"/>
      <point x="81" y="75" type="line" smooth="yes"/>
      <point x="42" y="38"/>
      <point x="39" y="-27"/>
      <point x="75" y="-67" type="curve" smooth="yes"/>
      <point x="112" y="-106"/>
      <point x="177" y="-109"/>
    </contour>
  </outline>
</glyph>
<glyph name="bracketleft" format="1">
  <advance width="598"/>
  <unicode hex="005B"/>
  <outline>
    <contour>
      <point x="521" y="-70" type="curve" smooth="yes"/>
      <point x="558" y="-31"/>
      <point x="557" y="34"/>
      <point x="519" y="72" type="curve" smooth="yes"/>
      <point x="275" y="307" type="line"/>
      <point x="535" y="749" type="line" smooth="yes"/>
      <point x="563" y="796"/>
      <point x="546" y="859"/>
      <point x="500" y="886" type="curve" smooth="yes"/>
      <point x="453" y="914"/>
      <point x="390" y="897"/>
      <point x="363" y="851" type="curve" smooth="yes"/>
      <point x="63" y="341" type="line" smooth="yes"/>
      <point x="41" y="303"/>
      <point x="48" y="248"/>
      <point x="79" y="218" type="curve" smooth="yes"/>
      <point x="379" y="-72" type="line" smooth="yes"/>
      <point x="418" y="-109"/>
      <point x="483" y="-108"/>
    </contour>
  </outline>
</glyph>
<glyph name="bracketright" format="1">
  <advance width="598"/>
  <unicode hex="005D"/>
  <outline>
    <contour>
      <point x="220" y="-73" type="curve" smooth="yes"/>
      <point x="520" y="217" type="line" smooth="yes"/>
      <point x="551" y="247"/>
      <point x="558" y="302"/>
      <point x="536" y="340" type="curve" smooth="yes"/>
      <point x="236" y="850" type="line" smooth="yes"/>
      <point x="209" y="896"/>
      <point x="146" y="913"/>
      <point x="99" y="885" type="curve" smooth="yes"/>
      <point x="53" y="858"/>
      <point x="36" y="795"/>
      <point x="64" y="748" type="curve" smooth="yes"/>
      <point x="324" y="306" type="line"/>
      <point x="80" y="71" type="line" smooth="yes"/>
      <point x="42" y="33"/>
      <point x="41" y="-32"/>
      <point x="78" y="-71" type="curve" smooth="yes"/>
      <point x="116" y="-109"/>
      <point x="181" y="-110"/>
    </contour>
  </outline>
</glyph>
<glyph name="f" format="1">
  <advance width="898"/>
  <unicode hex="0066"/>
  <outline>
    <contour>
      <point x="249" y="-11" type="curve" smooth="yes"/>
      <point x="296" y="296" type="line"/>
      <point x="323" y="308" type="line"/>
      <point x="332" y="305"/>
      <point x="341" y="304"/>
      <point x="350" y="304" type="curve" smooth="yes"/>
      <point x="550" y="304" type="line" smooth="yes"/>
      <point x="604" y="304"/>
      <point x="650" y="350"/>
      <point x="650" y="404" type="curve" smooth="yes"/>
      <point x="650" y="420"/>
      <point x="646" y="435"/>
      <point x="639" y="448" type="curve"/>
      <point x="790" y="515" type="line" smooth="yes"/>
      <point x="839" y="536"/>
      <point x="862" y="597"/>
      <point x="840" y="647" type="curve" smooth="yes"/>
      <point x="819" y="696"/>
      <point x="758" y="719"/>
      <point x="708" y="697" type="curve" smooth="yes"/>
      <point x="165" y="457" type="line" smooth="yes"/>
      <point x="138" y="445"/>
      <point x="112" y="411"/>
      <point x="107" y="381" type="curve" smooth="yes"/>
      <point x="51" y="19" type="line" smooth="yes"/>
      <point x="43" y="-34"/>
      <point x="81" y="-87"/>
      <point x="135" y="-95" type="curve" smooth="yes"/>
      <point x="188" y="-103"/>
      <point x="241" y="-65"/>
    </contour>
  </outline>
</glyph>
<glyph name="g" format="1">
  <advance width="898"/>
  <unicode hex="0067"/>
  <outline>
    <contour>
      <point x="276" y="531" type="curve" smooth="yes"/>
      <point x="540" y="286" type="line"/>
      <point x="260" y="216" type="line"/>
      <point x="253" y="564" type="line"/>
      <point x="258" y="551"/>
      <point x="266" y="540"/>
    </contour>
    <contour>
      <point x="187" y="-8" type="curve" smooth="yes"/>
      <point x="768" y="137" type="line" smooth="yes"/>
      <point x="852" y="158"/>
      <point x="875" y="249"/>
      <point x="812" y="307" type="curve" smooth="yes"/>
      <point x="575" y="527" type="line"/>
      <point x="730" y="505" type="line" smooth="yes"/>
      <point x="784" y="497"/>
      <point x="836" y="537"/>
      <point x="843" y="590" type="curve" smooth="yes"/>
      <point x="851" y="644"/>
      <point x="811" y="696"/>
      <point x="758" y="703" type="curve" smooth="yes"/>
      <point x="164" y="786" type="line" smooth="yes"/>
      <point x="101" y="795"/>
      <point x="49" y="749"/>
      <point x="50" y="685" type="curve" smooth="yes"/>
      <point x="63" y="87" type="line" smooth="yes"/>
      <point x="64" y="19"/>
      <point x="122" y="-25"/>
    </contour>
  </outline>
</glyph>
<glyph name="j" format="1">
  <advance width="899"/>
  <unicode hex="006A"/>
  <outline>
    <contour>
      <point x="218" y="-73" type="curve" smooth="yes"/>
      <point x="518" y="216" type="line" smooth="yes"/>
      <point x="524" y="222"/>
      <point x="531" y="231"/>
      <point x="535" y="238" type="curve" smooth="yes"/>
      <point x="835" y="748" type="line" smooth="yes"/>
      <point x="863" y="795"/>
      <point x="846" y="858"/>
      <point x="800" y="885" type="curve" smooth="yes"/>
      <point x="753" y="913"/>
      <point x="690" y="896"/>
      <point x="663" y="850" type="curve" smooth="yes"/>
      <point x="370" y="351" type="line"/>
      <point x="80" y="71" type="line" smooth="yes"/>
      <point x="41" y="33"/>
      <point x="40" y="-32"/>
      <point x="77" y="-70" type="curve" smooth="yes"/>
      <point x="115" y="-109"/>
      <point x="180" y="-110"/>
    </contour>
  </outline>
</glyph>
<glyph name="k" format="1">
  <advance width="900"/>
  <unicode hex="006B"/>
  <outline>
    <contour>
      <point x="824" y="-64" type="curve" smooth="yes"/>
      <point x="860" y="-24"/>
      <point x="857" y="41"/>
      <point x="818" y="78" type="curve" smooth="yes"/>
      <point x="568" y="306" type="line"/>
      <point x="598" y="312"/>
      <point x="625" y="331"/>
      <point x="639" y="359" type="curve" smooth="yes"/>
      <point x="839" y="759" type="line" smooth="yes"/>
      <point x="864" y="808"/>
      <point x="843" y="869"/>
      <point x="795" y="893" type="curve" smooth="yes"/>
      <point x="746" y="918"/>
      <point x="685" y="897"/>
      <point x="661" y="849" type="curve" smooth="yes"/>
      <point x="461" y="449" type="line" smooth="yes"/>
      <point x="455" y="438"/>
      <point x="452" y="426"/>
      <point x="451" y="413" type="curve"/>
      <point x="399" y="461" type="line"/>
      <point x="243" y="842" type="line" smooth="yes"/>
      <point x="222" y="892"/>
      <point x="162" y="917"/>
      <point x="112" y="897" type="curve" smooth="yes"/>
      <point x="62" y="876"/>
      <point x="37" y="816"/>
      <point x="57" y="766" type="curve" smooth="yes"/>
      <point x="222" y="365" type="line" smooth="yes"/>
      <point x="227" y="353"/>
      <point x="238" y="337"/>
      <point x="247" y="329" type="curve" smooth="yes"/>
      <point x="682" y="-70" type="line" smooth="yes"/>
      <point x="722" y="-106"/>
      <point x="787" y="-103"/>
    </contour>
  </outline>
</glyph>
<glyph name="m" format="1">
  <advance width="900"/>
  <unicode hex="006D"/>
  <outline>
    <contour>
      <point x="750" y="-101" type="curve" smooth="yes"/>
      <point x="804" y="-101"/>
      <point x="850" y="-55"/>
      <point x="850" y="-1" type="curve" smooth="yes"/>
      <point x="850" y="599" type="line" smooth="yes"/>
      <point x="850" y="638"/>
      <point x="820" y="680"/>
      <point x="784" y="693" type="curve" smooth="yes"/>
      <point x="224" y="893" type="line" smooth="yes"/>
      <point x="157" y="917"/>
      <point x="95" y="876"/>
      <point x="90" y="806" type="curve" smooth="yes"/>
      <point x="50" y="216" type="line"/>
      <point x="50" y="-1" type="line" smooth="yes"/>
      <point x="50" y="-55"/>
      <point x="96" y="-101"/>
      <point x="150" y="-101" type="curve" smooth="yes"/>
      <point x="204" y="-101"/>
      <point x="250" y="-55"/>
      <point x="250" y="-1" type="curve" smooth="yes"/>
      <point x="250" y="202" type="line"/>
      <point x="281" y="660" type="line"/>
      <point x="650" y="529" type="line"/>
      <point x="650" y="-1" type="line" smooth="yes"/>
      <point x="650" y="-55"/>
      <point x="696" y="-101"/>
    </contour>
  </outline>
</glyph>
<glyph name="n" format="1">
  <advance width="900"/>
  <unicode hex="006E"/>
  <outline>
    <contour>
      <point x="250" y="-1" type="curve" smooth="yes"/>
      <point x="250" y="154" type="line"/>
      <point x="440" y="504" type="line"/>
      <point x="665" y="146" type="line" smooth="yes"/>
      <point x="723" y="54"/>
      <point x="850" y="91"/>
      <point x="850" y="199" type="curve" smooth="yes"/>
      <point x="850" y="799" type="line" smooth="yes"/>
      <point x="850" y="853"/>
      <point x="804" y="899"/>
      <point x="750" y="899" type="curve" smooth="yes"/>
      <point x="696" y="899"/>
      <point x="650" y="853"/>
      <point x="650" y="799" type="curve" smooth="yes"/>
      <point x="650" y="546" type="line"/>
      <point x="519" y="755" type="line" smooth="yes"/>
      <point x="475" y="825"/>
      <point x="386" y="823"/>
      <point x="346" y="750" type="curve" smooth="yes"/>
      <point x="62" y="227" type="line" smooth="yes"/>
      <point x="55" y="214"/>
      <point x="50" y="193"/>
      <point x="50" y="179" type="curve" smooth="yes"/>
      <point x="50" y="-1" type="line" smooth="yes"/>
      <point x="50" y="-55"/>
      <point x="96" y="-101"/>
      <point x="150" y="-101" type="curve" smooth="yes"/>
      <point x="204" y="-101"/>
      <point x="250" y="-55"/>
    </contour>
  </outline>
</glyph>
<glyph name="q" format="1">
  <advance width="898"/>
  <unicode hex="0071"/>
  <outline>
    <contour>
      <point x="642" y="-35" type="curve" smooth="yes"/>
      <point x="842" y="525" type="line" smooth="yes"/>
      <point x="862" y="580"/>
      <point x="833" y="637"/>
      <point x="778" y="655" type="curve" smooth="yes"/>
      <point x="207" y="832" type="line" smooth="yes"/>
      <point x="141" y="852"/>
      <point x="80" y="810"/>
      <point x="77" y="741" type="curve" smooth="yes"/>
      <point x="50" y="153" type="line" smooth="yes"/>
      <point x="48" y="114"/>
      <point x="77" y="70"/>
      <point x="114" y="56" type="curve" smooth="yes"/>
      <point x="502" y="-94" type="line" smooth="yes"/>
      <point x="515" y="-99"/>
      <point x="528" y="-101"/>
      <point x="542" y="-101" type="curve"/>
      <point x="585" y="-103"/>
      <point x="627" y="-77"/>
    </contour>
    <contour>
      <point x="487" y="126" type="line"/>
      <point x="253" y="216" type="line"/>
      <point x="271" y="602" type="line"/>
      <point x="619" y="494" type="line"/>
    </contour>
  </outline>
</glyph>
<glyph name="s" format="1">
  <advance width="901"/>
  <unicode hex="0073"/>
  <outline>
    <contour>
      <point x="182" y="110" type="curve" smooth="yes"/>
      <point x="699" y="293" type="line" smooth="yes"/>
      <point x="785" y="324"/>
      <point x="796" y="425"/>
      <point x="717" y="473" type="curve" smooth="yes"/>
      <point x="639" y="520" type="line"/>
      <point x="735" y="505" type="line" smooth="yes"/>
      <point x="788" y="497"/>
      <point x="841" y="535"/>
      <point x="849" y="589" type="curve" smooth="yes"/>
      <point x="857" y="642"/>
      <point x="819" y="695"/>
      <point x="765" y="703" type="curve" smooth="yes"/>
      <point x="172" y="794" type="line" smooth="yes"/>
      <point x="58" y="811"/>
      <point x="6" y="670"/>
      <point x="105" y="610" type="curve" smooth="yes"/>
      <point x="433" y="411" type="line"/>
      <point x="116" y="298" type="line" smooth="yes"/>
      <point x="65" y="280"/>
      <point x="37" y="221"/>
      <point x="55" y="171" type="curve" smooth="yes"/>
      <point x="73" y="120"/>
      <point x="132" y="92"/>
    </contour>
  </outline>
</glyph>
<glyph name="t" format="1">
  <advance width="599"/>
  <unicode hex="0074"/>
  <outline>
    <contour>
      <point x="449" y="-100" type="curve" smooth="yes"/>
      <point x="503" y="-100"/>
      <point x="549" y="-54"/>
      <point x="549" y="0" type="curve" smooth="yes"/>
      <point x="549" y="600" type="line" smooth="yes"/>
      <point x="549" y="630"/>
      <point x="529" y="667"/>
      <point x="504" y="683" type="curve" smooth="yes"/>
      <point x="204" y="883" type="line" smooth="yes"/>
      <point x="160" y="913"/>
      <point x="96" y="900"/>
      <point x="66" y="855" type="curve" smooth="yes"/>
      <point x="36" y="811"/>
      <point x="49" y="747"/>
      <point x="94" y="717" type="curve" smooth="yes"/>
      <point x="349" y="546" type="line"/>
      <point x="349" y="0" type="line" smooth="yes"/>
      <point x="349" y="-54"/>
      <point x="395" y="-100"/>
    </contour>
  </outline>
</glyph>
<glyph name="u" format="1">
  <advance width="899"/>
  <unicode hex="0075"/>
  <outline>
    <contour>
      <point x="849" y="199" type="curve" smooth="yes"/>
      <point x="849" y="799" type="line" smooth="yes"/>
      <point x="849" y="853"/>
      <point x="803" y="899"/>
      <point x="749" y="899" type="curve" smooth="yes"/>
      <point x="695" y="899"/>
      <point x="649" y="853"/>
      <point x="649" y="799" type="curve" smooth="yes"/>
      <point x="649" y="304" type="line"/>
      <point x="250" y="324" type="line"/>
      <point x="250" y="799" type="line" smooth="yes"/>
      <point x="250" y="853"/>
      <point x="204" y="899"/>
      <point x="150" y="899" type="curve" smooth="yes"/>
      <point x="96" y="899"/>
      <point x="50" y="853"/>
      <point x="50" y="799" type="curve" smooth="yes"/>
      <point x="50" y="229" type="line" smooth="yes"/>
      <point x="50" y="176"/>
      <point x="93" y="132"/>
      <point x="145" y="129" type="curve" smooth="yes"/>
      <point x="744" y="99" type="line" smooth="yes"/>
      <point x="802" y="96"/>
      <point x="849" y="141"/>
    </contour>
  </outline>
</glyph>
<glyph name="v" format="1">
  <advance width="900"/>
  <unicode hex="0076"/>
  <outline>
    <contour>
      <point x="845" y="124" type="curve" smooth="yes"/>
      <point x="850" y="719" type="line"/>
      <point x="850" y="800" type="line" smooth="yes"/>
      <point x="850" y="854"/>
      <point x="804" y="900"/>
      <point x="750" y="900" type="curve" smooth="yes"/>
      <point x="696" y="900"/>
      <point x="650" y="854"/>
      <point x="650" y="800" type="curve" smooth="yes"/>
      <point x="650" y="721" type="line"/>
      <point x="646" y="238" type="line"/>
      <point x="250" y="288" type="line"/>
      <point x="250" y="800" type="line" smooth="yes"/>
      <point x="250" y="854"/>
      <point x="204" y="900"/>
      <point x="150" y="900" type="curve" smooth="yes"/>
      <point x="96" y="900"/>
      <point x="50" y="854"/>
      <point x="50" y="800" type="curve" smooth="yes"/>
      <point x="50" y="200" type="line"/>
      <point x="50" y="151"/>
      <point x="89" y="107"/>
      <point x="137" y="101" type="curve" smooth="yes"/>
      <point x="732" y="26" type="line" smooth="yes"/>
      <point x="794" y="18"/>
      <point x="844" y="62"/>
    </contour>
  </outline>
</glyph>
<glyph name="w" format="1">
  <advance width="900"/>
  <unicode hex="0077"/>
  <outline>
    <contour>
      <point x="810" y="-7" type="curve" smooth="yes"/>
      <point x="850" y="583" type="line"/>
      <point x="850" y="800" type="line" smooth="yes"/>
      <point x="850" y="854"/>
      <point x="804" y="900"/>
      <point x="750" y="900" type="curve" smooth="yes"/>
      <point x="696" y="900"/>
      <point x="650" y="854"/>
      <point x="650" y="800" type="curve" smooth="yes"/>
      <point x="650" y="597" type="line"/>
      <point x="619" y="139" type="line"/>
      <point x="250" y="270" type="line"/>
      <point x="250" y="800" type="line" smooth="yes"/>
      <point x="250" y="854"/>
      <point x="204" y="900"/>
      <point x="150" y="900" type="curve" smooth="yes"/>
      <point x="96" y="900"/>
      <point x="50" y="854"/>
      <point x="50" y="800" type="curve" smooth="yes"/>
      <point x="50" y="200" type="line"/>
      <point x="50" y="161"/>
      <point x="80" y="119"/>
      <point x="116" y="106" type="curve" smooth="yes"/>
      <point x="676" y="-94" type="line" smooth="yes"/>
      <point x="743" y="-118"/>
      <point x="805" y="-77"/>
    </contour>
  </outline>
</glyph>
<glyph name="x" format="1">
  <advance width="899"/>
  <unicode hex="0078"/>
  <outline>
    <contour>
      <point x="243" y="-38" type="curve" smooth="yes"/>
      <point x="353" y="232" type="line"/>
      <point x="682" y="-73" type="line" smooth="yes"/>
      <point x="722" y="-110"/>
      <point x="787" y="-108"/>
      <point x="823" y="-68" type="curve" smooth="yes"/>
      <point x="860" y="-28"/>
      <point x="858" y="37"/>
      <point x="818" y="73" type="curve" smooth="yes"/>
      <point x="464" y="402" type="line"/>
      <point x="818" y="726" type="line" smooth="yes"/>
      <point x="857" y="763"/>
      <point x="860" y="828"/>
      <point x="824" y="868" type="curve" smooth="yes"/>
      <point x="787" y="907"/>
      <point x="722" y="910"/>
      <point x="682" y="874" type="curve" smooth="yes"/>
      <point x="354" y="572" type="line"/>
      <point x="242" y="839" type="line" smooth="yes"/>
      <point x="221" y="889"/>
      <point x="161" y="913"/>
      <point x="111" y="892" type="curve" smooth="yes"/>
      <point x="61" y="871"/>
      <point x="37" y="811"/>
      <point x="58" y="761" type="curve" smooth="yes"/>
      <point x="208" y="404" type="line"/>
      <point x="57" y="38" type="line" smooth="yes"/>
      <point x="37" y="-12"/>
      <point x="62" y="-72"/>
      <point x="112" y="-93" type="curve" smooth="yes"/>
      <point x="162" y="-113"/>
      <point x="222" y="-88"/>
    </contour>
  </outline>
</glyph>
<glyph name="z" format="1">
  <advance width="900"/>
  <unicode hex="007A"/>
  <outline>
    <contour>
      <point x="833" y="-55" type="curve" smooth="yes"/>
      <point x="863" y="-11"/>
      <point x="850" y="53"/>
      <point x="805" y="83" type="curve" smooth="yes"/>
      <point x="462" y="312" type="line"/>
      <point x="806" y="626" type="line" smooth="yes"/>
      <point x="873" y="687"/>
      <point x="845" y="783"/>
      <point x="755" y="798" type="curve" smooth="yes"/>
      <point x="167" y="899" type="line" smooth="yes"/>
      <point x="114" y="908"/>
      <point x="61" y="870"/>
      <point x="51" y="817" type="curve" smooth="yes"/>
      <point x="42" y="764"/>
      <point x="80" y="711"/>
      <point x="133" y="701" type="curve" smooth="yes"/>
      <point x="520" y="635" type="line"/>
      <point x="233" y="374" type="line" smooth="yes"/>
      <point x="182" y="328"/>
      <point x="188" y="255"/>
      <point x="245" y="217" type="curve" smooth="yes"/>
      <point x="695" y="-83" type="line" smooth="yes"/>
      <point x="739" y="-113"/>
      <point x="803" y="-100"/>
    </contour>
  </outline>
</glyph>
<glyph name="braceleft" format="1">
  <advance width="751"/>
  <unicode hex="007B"/>
  <outline>
    <contour>
      <point x="591" y="-102" type="curve" smooth="yes"/>
      <point x="601" y="-102" type="line" smooth="yes"/>
      <point x="655" y="-102"/>
      <point x="701" y="-56"/>
      <point x="701" y="-2" type="curve" smooth="yes"/>
      <point x="701" y="39"/>
      <point x="674" y="75"/>
      <point x="638" y="91" type="curve"/>
      <point x="301" y="400" type="line"/>
      <point x="667" y="723" type="line" smooth="yes"/>
      <point x="708" y="759"/>
      <point x="712" y="824"/>
      <point x="676" y="864" type="curve" smooth="yes"/>
      <point x="640" y="905"/>
      <point x="575" y="909"/>
      <point x="535" y="873" type="curve" smooth="yes"/>
      <point x="85" y="476" type="line" smooth="yes"/>
      <point x="39" y="436"/>
      <point x="39" y="369"/>
      <point x="84" y="327" type="curve" smooth="yes"/>
      <point x="523" y="-76" type="line" smooth="yes"/>
      <point x="539" y="-90"/>
      <point x="570" y="-102"/>
    </contour>
  </outline>
</glyph>
<glyph name="braceright" format="1">
  <advance width="751"/>
  <unicode hex="007D"/>
  <outline>
    <contour>
      <point x="150" y="-101" type="curve" smooth="yes"/>
      <point x="160" y="-101" type="line" smooth="yes"/>
      <point x="181" y="-101"/>
      <point x="212" y="-89"/>
      <point x="228" y="-75" type="curve" smooth="yes"/>
      <point x="667" y="328" type="line" smooth="yes"/>
      <point x="712" y="370"/>
      <point x="712" y="437"/>
      <point x="666" y="477" type="curve" smooth="yes"/>
      <point x="216" y="874" type="line" smooth="yes"/>
      <point x="176" y="910"/>
      <point x="111" y="906"/>
      <point x="75" y="865" type="curve" smooth="yes"/>
      <point x="39" y="825"/>
      <point x="43" y="760"/>
      <point x="84" y="724" type="curve" smooth="yes"/>
      <point x="450" y="401" type="line"/>
      <point x="113" y="91" type="line"/>
      <point x="77" y="76"/>
      <point x="50" y="40"/>
      <point x="50" y="-1" type="curve" smooth="yes"/>
      <point x="50" y="-55"/>
      <point x="96" y="-101"/>
    </contour>
  </outline>
</glyph>
<glyph name="asciitilde" format="1">
  <advance width="900"/>
  <unicode hex="007E"/>
  <outline>
    <contour>
      <point x="167" y="4" type="curve" smooth="yes"/>
      <point x="755" y="105" type="line" smooth="yes"/>
      <point x="796" y="111"/>
      <point x="833" y="150"/>
      <point x="838" y="191" type="curve" smooth="yes"/>
      <point x="849" y="291" type="line" smooth="yes"/>
      <point x="856" y="345"/>
      <point x="815" y="396"/>
      <point x="762" y="402" type="curve" smooth="yes"/>
      <point x="708" y="409"/>
      <point x="657" y="368"/>
      <point x="651" y="315" type="curve" smooth="yes"/>
      <point x="648" y="289" type="line"/>
      <point x="133" y="202" type="line" smooth="yes"/>
      <point x="80" y="193"/>
      <point x="42" y="139"/>
      <point x="51" y="86" type="curve" smooth="yes"/>
      <point x="60" y="33"/>
      <point x="114" y="-5"/>
    </contour>
  </outline>
</glyph>
<glyph name="sterling" format="1">
  <advance width="649"/>
  <unicode hex="00A3"/>
  <outline>
    <contour>
      <point x="534" y="-93" type="curve" smooth="yes"/>
      <point x="584" y="-75"/>
      <point x="612" y="-16"/>
      <point x="594" y="35" type="curve" smooth="yes"/>
      <point x="495" y="312" type="line"/>
      <point x="527" y="329"/>
      <point x="550" y="363"/>
      <point x="550" y="401" type="curve" smooth="yes"/>
      <point x="550" y="455"/>
      <point x="504" y="501"/>
      <point x="450" y="501" type="curve" smooth="yes"/>
      <point x="428" y="501" type="line"/>
      <point x="413" y="541" type="line"/>
      <point x="577" y="737" type="line" smooth="yes"/>
      <point x="611" y="778"/>
      <point x="606" y="843"/>
      <point x="564" y="878" type="curve" smooth="yes"/>
      <point x="523" y="912"/>
      <point x="458" y="907"/>
      <point x="423" y="865" type="curve" smooth="yes"/>
      <point x="223" y="626" type="line" smooth="yes"/>
      <point x="203" y="601"/>
      <point x="195" y="558"/>
      <point x="206" y="528" type="curve" smooth="yes"/>
      <point x="215" y="501" type="line"/>
      <point x="150" y="501" type="line" smooth="yes"/>
      <point x="96" y="501"/>
      <point x="50" y="455"/>
      <point x="50" y="401" type="curve" smooth="yes"/>
      <point x="50" y="347"/>
      <point x="96" y="301"/>
      <point x="150" y="301" type="curve" smooth="yes"/>
      <point x="287" y="301" type="line"/>
      <point x="406" y="-33" type="line" smooth="yes"/>
      <point x="424" y="-83"/>
      <point x="483" y="-111"/>
    </contour>
  </outline>
</glyph>
<glyph name="section" format="1">
  <advance width="900"/>
  <unicode hex="00A7"/>
  <outline>
    <contour>
      <point x="153" y="103" type="curve" smooth="yes"/>
      <point x="705" y="119" type="line" smooth="yes"/>
      <point x="808" y="122"/>
      <point x="845" y="237"/>
      <point x="762" y="299" type="curve" smooth="yes"/>
      <point x="500" y="496" type="line"/>
      <point x="753" y="503" type="line" smooth="yes"/>
      <point x="807" y="505"/>
      <point x="852" y="552"/>
      <point x="850" y="606" type="curve" smooth="yes"/>
      <point x="848" y="660"/>
      <point x="801" y="705"/>
      <point x="747" y="703" type="curve" smooth="yes"/>
      <point x="195" y="687" type="line" smooth="yes"/>
      <point x="92" y="684"/>
      <point x="55" y="569"/>
      <point x="138" y="507" type="curve" smooth="yes"/>
      <point x="400" y="310" type="line"/>
      <point x="147" y="303" type="line" smooth="yes"/>
      <point x="93" y="301"/>
      <point x="48" y="254"/>
      <point x="50" y="200" type="curve" smooth="yes"/>
      <point x="52" y="146"/>
      <point x="99" y="101"/>
    </contour>
  </outline>
</glyph>
<glyph name="paragraph" format="1">
  <advance width="500"/>
  <unicode hex="00B6"/>
  <outline>
    <contour>
      <point x="350" y="-100" type="curve" smooth="yes"/>
      <point x="404" y="-100"/>
      <point x="450" y="-54"/>
      <point x="450" y="0" type="curve" smooth="yes"/>
      <point x="450" y="40" type="line" smooth="yes"/>
      <point x="450" y="50"/>
      <point x="447" y="65"/>
      <point x="444" y="74" type="curve" smooth="yes"/>
      <point x="244" y="634" type="line" smooth="yes"/>
      <point x="204" y="745"/>
      <point x="50" y="718"/>
      <point x="50" y="600" type="curve" smooth="yes"/>
      <point x="50" y="0" type="line" smooth="yes"/>
      <point x="50" y="-54"/>
      <point x="96" y="-100"/>
      <point x="150" y="-100" type="curve" smooth="yes"/>
      <point x="204" y="-100"/>
      <point x="250" y="-54"/>
      <point x="250" y="0" type="curve" smooth="yes"/>
      <point x="250" y="-54"/>
      <point x="296" y="-100"/>
    </contour>
  </outline>
</glyph>
<glyph name="Agrave" format="1">
  <advance width="899"/>
  <unicode hex="00C0"/>
  <outline>
    <contour>
      <point x="749" y="-104" type="curve" smooth="yes"/>
      <point x="803" y="-104"/>
      <point x="849" y="-58"/>
      <point x="849" y="-4" type="curve" smooth="yes"/>
      <point x="849" y="360" type="line" smooth="yes"/>
      <point x="849" y="382"/>
      <point x="837" y="412"/>
      <point x="822" y="428" type="curve" smooth="yes"/>
      <point x="453" y="829" type="line"/>
      <point x="484" y="830"/>
      <point x="514" y="846"/>
      <point x="532" y="873" type="curve" smooth="yes"/>
      <point x="562" y="917"/>
      <point x="549" y="981"/>
      <point x="504" y="1011" type="curve" smooth="yes"/>
      <point x="204" y="1211" type="line" smooth="yes"/>
      <point x="160" y="1241"/>
      <point x="96" y="1228"/>
      <point x="66" y="1183" type="curve" smooth="yes"/>
      <point x="36" y="1139"/>
      <point x="49" y="1075"/>
      <point x="94" y="1045" type="curve" smooth="yes"/>
      <point x="317" y="896" type="line"/>
      <point x="288" y="887"/>
      <point x="264" y="863"/>
      <point x="252" y="827" type="curve" smooth="yes"/>
      <point x="66" y="257" type="line" smooth="yes"/>
      <point x="41" y="178"/>
      <point x="100" y="111"/>
      <point x="181" y="128" type="curve" smooth="yes"/>
      <point x="649" y="224" type="line"/>
      <point x="649" y="-4" type="line" smooth="yes"/>
      <point x="649" y="-58"/>
      <point x="695" y="-104"/>
    </contour>
    <contour>
      <point x="310" y="358" type="line"/>
      <point x="389" y="603" type="line"/>
      <point x="566" y="411" type="line"/>
    </contour>
  </outline>
</glyph>
<glyph name="Aacute" format="1">
  <advance width="889"/>
  <unicode hex="00C1"/>
  <outline>
    <contour>
      <point x="739" y="-104" type="curve" smooth="yes"/>
      <point x="793" y="-104"/>
      <point x="839" y="-58"/>
      <point x="839" y="-4" type="curve" smooth="yes"/>
      <point x="839" y="360" type="line" smooth="yes"/>
      <point x="839" y="382"/>
      <point x="827" y="412"/>
      <point x="812" y="428" type="curve" smooth="yes"/>
      <point x="443" y="829" type="line"/>
      <point x="461" y="829"/>
      <point x="479" y="834"/>
      <point x="494" y="845" type="curve" smooth="yes"/>
      <point x="794" y="1045" type="line" smooth="yes"/>
      <point x="839" y="1075"/>
      <point x="852" y="1139"/>
      <point x="822" y="1183" type="curve" smooth="yes"/>
      <point x="792" y="1228"/>
      <point x="728" y="1241"/>
      <point x="684" y="1211" type="curve" smooth="yes"/>
      <point x="384" y="1011" type="line" smooth="yes"/>
      <point x="347" y="987"/>
      <point x="332" y="940"/>
      <point x="343" y="899" type="curve"/>
      <point x="301" y="904"/>
      <point x="258" y="878"/>
      <point x="242" y="827" type="curve" smooth="yes"/>
      <point x="56" y="257" type="line" smooth="yes"/>
      <point x="31" y="178"/>
      <point x="90" y="111"/>
      <point x="171" y="128" type="curve" smooth="yes"/>
      <point x="639" y="224" type="line"/>
      <point x="639" y="-4" type="line" smooth="yes"/>
      <point x="639" y="-58"/>
      <point x="685" y="-104"/>
    </contour>
    <contour>
      <point x="300" y="358" type="line"/>
      <point x="379" y="603" type="line"/>
      <point x="556" y="411" type="line"/>
    </contour>
  </outline>
</glyph>
<glyph name="Ecircumflex" format="1">
  <advance width="904"/>
  <unicode hex="00CA"/>
  <outline>
    <contour>
      <point x="50" y="928" type="curve" smooth="yes"/>
      <point x="50" y="874"/>
      <point x="96" y="828"/>
      <point x="150" y="828" type="curve" smooth="yes"/>
      <point x="750" y="828" type="line" smooth="yes"/>
      <point x="804" y="828"/>
      <point x="850" y="874"/>
      <point x="850" y="928" type="curve" smooth="yes"/>
      <point x="850" y="982"/>
      <point x="804" y="1028"/>
      <point x="750" y="1028" type="curve" smooth="yes"/>
      <point x="150" y="1028" type="line" smooth="yes"/>
      <point x="96" y="1028"/>
      <point x="50" y="982"/>
    </contour>
    <contour>
      <point x="627" y="-71" type="curve" smooth="yes"/>
      <point x="825" y="125" type="line" smooth="yes"/>
      <point x="864" y="163"/>
      <point x="864" y="228"/>
      <point x="826" y="266" type="curve" smooth="yes"/>
      <point x="788" y="305"/>
      <point x="723" y="305"/>
      <point x="685" y="267" type="curve" smooth="yes"/>
      <point x="557" y="141" type="line"/>
      <point x="379" y="324" type="line"/>
      <point x="795" y="511" type="line" smooth="yes"/>
      <point x="844" y="533"/>
      <point x="867" y="594"/>
      <point x="845" y="643" type="curve" smooth="yes"/>
      <point x="823" y="692"/>
      <point x="762" y="715"/>
      <point x="713" y="693" type="curve" smooth="yes"/>
      <point x="166" y="448" type="line" smooth="yes"/>
      <point x="98" y="418"/>
      <point x="84" y="341"/>
      <point x="135" y="287" type="curve" smooth="yes"/>
      <point x="483" y="-70" type="line" smooth="yes"/>
      <point x="502" y="-89"/>
      <point x="529" y="-99"/>
      <point x="555" y="-99" type="curve"/>
      <point x="556" y="-99"/>
      <point x="556" y="-99"/>
      <point x="557" y="-99" type="curve"/>
      <point x="557" y="-99"/>
      <point x="558" y="-99"/>
      <point x="558" y="-99" type="curve"/>
      <point x="583" y="-99"/>
      <point x="608" y="-90"/>
    </contour>
  </outline>
</glyph>
<glyph name="Igrave" format="1">
  <advance width="899"/>
  <unicode hex="00CC"/>
  <outline>
    <contour>
      <point x="537" y="873" type="curve" smooth="yes"/>
      <point x="567" y="917"/>
      <point x="554" y="981"/>
      <point x="509" y="1011" type="curve" smooth="yes"/>
      <point x="209" y="1211" type="line" smooth="yes"/>
      <point x="165" y="1241"/>
      <point x="101" y="1228"/>
      <point x="71" y="1183" type="curve" smooth="yes"/>
      <point x="41" y="1139"/>
      <point x="54" y="1075"/>
      <point x="99" y="1045" type="curve" smooth="yes"/>
      <point x="399" y="845" type="line" smooth="yes"/>
      <point x="443" y="815"/>
      <point x="507" y="828"/>
    </contour>
    <contour>
      <point x="236" y="-52" type="curve" smooth="yes"/>
      <point x="529" y="447" type="line"/>
      <point x="819" y="727" type="line" smooth="yes"/>
      <point x="858" y="765"/>
      <point x="859" y="830"/>
      <point x="822" y="868" type="curve" smooth="yes"/>
      <point x="784" y="907"/>
      <point x="719" y="908"/>
      <point x="681" y="871" type="curve" smooth="yes"/>
      <point x="381" y="582" type="line" smooth="yes"/>
      <point x="375" y="576"/>
      <point x="368" y="567"/>
      <point x="364" y="560" type="curve" smooth="yes"/>
      <point x="64" y="50" type="line" smooth="yes"/>
      <point x="36" y="3"/>
      <point x="53" y="-60"/>
      <point x="99" y="-87" type="curve" smooth="yes"/>
      <point x="146" y="-115"/>
      <point x="209" y="-98"/>
    </contour>
  </outline>
</glyph>
<glyph name="Iacute" format="1">
  <advance width="903"/>
  <unicode hex="00CD"/>
  <outline>
    <contour>
      <point x="371" y="873" type="curve" smooth="yes"/>
      <point x="401" y="828"/>
      <point x="465" y="815"/>
      <point x="509" y="845" type="curve" smooth="yes"/>
      <point x="809" y="1045" type="line" smooth="yes"/>
      <point x="854" y="1075"/>
      <point x="867" y="1139"/>
      <point x="837" y="1183" type="curve" smooth="yes"/>
      <point x="807" y="1228"/>
      <point x="743" y="1241"/>
      <point x="699" y="1211" type="curve" smooth="yes"/>
      <point x="399" y="1011" type="line" smooth="yes"/>
      <point x="354" y="981"/>
      <point x="341" y="917"/>
    </contour>
    <contour>
      <point x="236" y="-52" type="curve" smooth="yes"/>
      <point x="529" y="447" type="line"/>
      <point x="819" y="727" type="line" smooth="yes"/>
      <point x="858" y="765"/>
      <point x="859" y="830"/>
      <point x="822" y="868" type="curve" smooth="yes"/>
      <point x="784" y="907"/>
      <point x="719" y="908"/>
      <point x="681" y="871" type="curve" smooth="yes"/>
      <point x="381" y="582" type="line" smooth="yes"/>
      <point x="375" y="576"/>
      <point x="368" y="567"/>
      <point x="364" y="560" type="curve" smooth="yes"/>
      <point x="64" y="50" type="line" smooth="yes"/>
      <point x="36" y="3"/>
      <point x="53" y="-60"/>
      <point x="99" y="-87" type="curve" smooth="yes"/>
      <point x="146" y="-115"/>
      <point x="209" y="-98"/>
    </contour>
  </outline>
</glyph>
<glyph name="Icircumflex" format="1">
  <advance width="904"/>
  <unicode hex="00CE"/>
  <outline>
    <contour>
      <point x="236" y="-52" type="curve" smooth="yes"/>
      <point x="529" y="447" type="line"/>
      <point x="819" y="727" type="line" smooth="yes"/>
      <point x="856" y="762"/>
      <point x="859" y="822"/>
      <point x="828" y="862" type="curve"/>
      <point x="844" y="879"/>
      <point x="854" y="903"/>
      <point x="854" y="928" type="curve" smooth="yes"/>
      <point x="854" y="982"/>
      <point x="808" y="1028"/>
      <point x="754" y="1028" type="curve" smooth="yes"/>
      <point x="154" y="1028" type="line" smooth="yes"/>
      <point x="100" y="1028"/>
      <point x="54" y="982"/>
      <point x="54" y="928" type="curve" smooth="yes"/>
      <point x="54" y="874"/>
      <point x="100" y="828"/>
      <point x="154" y="828" type="curve" smooth="yes"/>
      <point x="636" y="828" type="line"/>
      <point x="381" y="582" type="line" smooth="yes"/>
      <point x="375" y="576"/>
      <point x="368" y="567"/>
      <point x="364" y="560" type="curve" smooth="yes"/>
      <point x="64" y="50" type="line" smooth="yes"/>
      <point x="36" y="3"/>
      <point x="53" y="-60"/>
      <point x="99" y="-87" type="curve" smooth="yes"/>
      <point x="146" y="-115"/>
      <point x="209" y="-98"/>
    </contour>
  </outline>
</glyph>
<glyph name="Ograve" format="1">
  <advance width="900"/>
  <unicode hex="00D2"/>
  <outline>
    <contour>
      <point x="532" y="873" type="curve" smooth="yes"/>
      <point x="562" y="917"/>
      <point x="549" y="981"/>
      <point x="504" y="1011" type="curve" smooth="yes"/>
      <point x="204" y="1211" type="line" smooth="yes"/>
      <point x="160" y="1241"/>
      <point x="96" y="1228"/>
      <point x="66" y="1183" type="curve" smooth="yes"/>
      <point x="36" y="1139"/>
      <point x="49" y="1075"/>
      <point x="94" y="1045" type="curve" smooth="yes"/>
      <point x="394" y="845" type="line" smooth="yes"/>
      <point x="438" y="815"/>
      <point x="502" y="828"/>
    </contour>
    <contour>
      <point x="491" y="124" type="line"/>
      <point x="255" y="209" type="line"/>
      <point x="273" y="602" type="line"/>
      <point x="621" y="494" type="line"/>
    </contour>
    <contour>
      <point x="647" y="-34" type="curve" smooth="yes"/>
      <point x="844" y="526" type="line" smooth="yes"/>
      <point x="863" y="580"/>
      <point x="834" y="638"/>
      <point x="780" y="655" type="curve" smooth="yes"/>
      <point x="209" y="832" type="line" smooth="yes"/>
      <point x="143" y="852"/>
      <point x="82" y="810"/>
      <point x="79" y="741" type="curve" smooth="yes"/>
      <point x="52" y="144" type="line" smooth="yes"/>
      <point x="50" y="104"/>
      <point x="80" y="60"/>
      <point x="118" y="46" type="curve" smooth="yes"/>
      <point x="509" y="-95" type="line" smooth="yes"/>
      <point x="521" y="-100"/>
      <point x="534" y="-101"/>
      <point x="547" y="-101" type="curve"/>
      <point x="590" y="-103"/>
      <point x="633" y="-76"/>
    </contour>
  </outline>
</glyph>
<glyph name="Ocircumflex" format="1">
  <advance width="901"/>
  <unicode hex="00D4"/>
  <outline>
    <contour>
      <point x="492" y="124" type="line"/>
      <point x="256" y="209" type="line"/>
      <point x="274" y="602" type="line"/>
      <point x="622" y="494" type="line"/>
    </contour>
    <contour>
      <point x="648" y="-34" type="curve" smooth="yes"/>
      <point x="845" y="526" type="line" smooth="yes"/>
      <point x="864" y="580"/>
      <point x="835" y="638"/>
      <point x="781" y="655" type="curve" smooth="yes"/>
      <point x="222" y="828" type="line"/>
      <point x="750" y="828" type="line" smooth="yes"/>
      <point x="804" y="828"/>
      <point x="850" y="874"/>
      <point x="850" y="928" type="curve" smooth="yes"/>
      <point x="850" y="982"/>
      <point x="804" y="1028"/>
      <point x="750" y="1028" type="curve" smooth="yes"/>
      <point x="150" y="1028" type="line" smooth="yes"/>
      <point x="96" y="1028"/>
      <point x="50" y="982"/>
      <point x="50" y="928" type="curve" smooth="yes"/>
      <point x="50" y="878"/>
      <point x="89" y="835"/>
      <point x="137" y="829" type="curve"/>
      <point x="105" y="815"/>
      <point x="82" y="783"/>
      <point x="80" y="741" type="curve" smooth="yes"/>
      <point x="53" y="144" type="line" smooth="yes"/>
      <point x="51" y="104"/>
      <point x="81" y="60"/>
      <point x="119" y="46" type="curve" smooth="yes"/>
      <point x="510" y="-95" type="line" smooth="yes"/>
      <point x="522" y="-100"/>
      <point x="535" y="-101"/>
      <point x="548" y="-101" type="curve"/>
      <point x="591" y="-103"/>
      <point x="634" y="-76"/>
    </contour>
  </outline>
</glyph>
<glyph name="Otilde" format="1">
  <advance width="901"/>
  <unicode hex="00D5"/>
  <outline>
    <contour>
      <point x="492" y="124" type="line"/>
      <point x="256" y="209" type="line"/>
      <point x="274" y="602" type="line"/>
      <point x="622" y="494" type="line"/>
    </contour>
    <contour>
      <point x="648" y="-34" type="curve" smooth="yes"/>
      <point x="845" y="526" type="line" smooth="yes"/>
      <point x="864" y="580"/>
      <point x="835" y="638"/>
      <point x="781" y="655" type="curve" smooth="yes"/>
      <point x="210" y="832" type="line" smooth="yes"/>
      <point x="206" y="833"/>
      <point x="202" y="834"/>
      <point x="198" y="835" type="curve"/>
      <point x="755" y="930" type="line" smooth="yes"/>
      <point x="796" y="936"/>
      <point x="833" y="975"/>
      <point x="838" y="1016" type="curve" smooth="yes"/>
      <point x="849" y="1116" type="line" smooth="yes"/>
      <point x="856" y="1170"/>
      <point x="815" y="1221"/>
      <point x="762" y="1227" type="curve" smooth="yes"/>
      <point x="708" y="1234"/>
      <point x="657" y="1193"/>
      <point x="651" y="1140" type="curve" smooth="yes"/>
      <point x="648" y="1114" type="line"/>
      <point x="133" y="1027" type="line" smooth="yes"/>
      <point x="80" y="1018"/>
      <point x="42" y="964"/>
      <point x="51" y="911" type="curve" smooth="yes"/>
      <point x="59" y="868"/>
      <point x="95" y="835"/>
      <point x="138" y="829" type="curve"/>
      <point x="105" y="815"/>
      <point x="82" y="783"/>
      <point x="80" y="741" type="curve" smooth="yes"/>
      <point x="53" y="144" type="line" smooth="yes"/>
      <point x="51" y="104"/>
      <point x="81" y="60"/>
      <point x="119" y="46" type="curve" smooth="yes"/>
      <point x="510" y="-95" type="line" smooth="yes"/>
      <point x="522" y="-100"/>
      <point x="535" y="-101"/>
      <point x="548" y="-101" type="curve"/>
      <point x="591" y="-103"/>
      <point x="634" y="-76"/>
    </contour>
  </outline>
</glyph>
<glyph name="Oslash" format="1">
  <advance width="901"/>
  <unicode hex="00D8"/>
  <outline>
    <contour>
      <point x="232" y="-59" type="curve" smooth="yes"/>
      <point x="335" y="79" type="line"/>
      <point x="498" y="9" type="line" smooth="yes"/>
      <point x="511" y="3"/>
      <point x="525" y="1"/>
      <point x="538" y="1" type="curve"/>
      <point x="541" y="1"/>
      <point x="543" y="1"/>
      <point x="545" y="1" type="curve" smooth="yes"/>
      <point x="599" y="0"/>
      <point x="646" y="45"/>
      <point x="647" y="99" type="curve" smooth="yes"/>
      <point x="656" y="506" type="line"/>
      <point x="832" y="741" type="line" smooth="yes"/>
      <point x="864" y="784"/>
      <point x="855" y="849"/>
      <point x="812" y="881" type="curve" smooth="yes"/>
      <point x="769" y="913"/>
      <point x="704" y="904"/>
      <point x="672" y="861" type="curve" smooth="yes"/>
      <point x="618" y="789" type="line"/>
      <point x="581" y="814"/>
      <point x="527" y="812"/>
      <point x="487" y="769" type="curve" smooth="yes"/>
      <point x="80" y="334" type="line" smooth="yes"/>
      <point x="29" y="280"/>
      <point x="45" y="203"/>
      <point x="113" y="173" type="curve" smooth="yes"/>
      <point x="146" y="160" type="line"/>
      <point x="72" y="61" type="line" smooth="yes"/>
      <point x="40" y="18"/>
      <point x="49" y="-47"/>
      <point x="92" y="-79" type="curve" smooth="yes"/>
      <point x="135" y="-111"/>
      <point x="200" y="-102"/>
    </contour>
  </outline>
</glyph>
<glyph name="Uacute" format="1">
  <advance width="900"/>
  <unicode hex="00DA"/>
  <outline>
    <contour>
      <point x="368" y="873" type="curve" smooth="yes"/>
      <point x="398" y="828"/>
      <point x="462" y="815"/>
      <point x="506" y="845" type="curve" smooth="yes"/>
      <point x="806" y="1045" type="line" smooth="yes"/>
      <point x="851" y="1075"/>
      <point x="864" y="1139"/>
      <point x="834" y="1183" type="curve" smooth="yes"/>
      <point x="804" y="1228"/>
      <point x="740" y="1241"/>
      <point x="696" y="1211" type="curve" smooth="yes"/>
      <point x="396" y="1011" type="line" smooth="yes"/>
      <point x="351" y="981"/>
      <point x="338" y="917"/>
    </contour>
    <contour>
      <point x="849" y="199" type="curve" smooth="yes"/>
      <point x="849" y="799" type="line" smooth="yes"/>
      <point x="849" y="853"/>
      <point x="803" y="899"/>
      <point x="749" y="899" type="curve" smooth="yes"/>
      <point x="695" y="899"/>
      <point x="649" y="853"/>
      <point x="649" y="799" type="curve" smooth="yes"/>
      <point x="649" y="304" type="line"/>
      <point x="250" y="324" type="line"/>
      <point x="250" y="799" type="line" smooth="yes"/>
      <point x="250" y="853"/>
      <point x="204" y="899"/>
      <point x="150" y="899" type="curve" smooth="yes"/>
      <point x="96" y="899"/>
      <point x="50" y="853"/>
      <point x="50" y="799" type="curve" smooth="yes"/>
      <point x="50" y="229" type="line" smooth="yes"/>
      <point x="50" y="176"/>
      <point x="93" y="132"/>
      <point x="145" y="129" type="curve" smooth="yes"/>
      <point x="744" y="99" type="line" smooth="yes"/>
      <point x="802" y="96"/>
      <point x="849" y="141"/>
    </contour>
  </outline>
</glyph>
<glyph name="Ucircumflex" format="1">
  <advance width="901"/>
  <unicode hex="00DB"/>
  <outline>
    <contour>
      <point x="849" y="199" type="curve" smooth="yes"/>
      <point x="849" y="799" type="line" smooth="yes"/>
      <point x="849" y="823"/>
      <point x="840" y="845"/>
      <point x="826" y="862" type="curve"/>
      <point x="841" y="880"/>
      <point x="851" y="903"/>
      <point x="851" y="928" type="curve" smooth="yes"/>
      <point x="851" y="982"/>
      <point x="805" y="1028"/>
      <point x="751" y="1028" type="curve" smooth="yes"/>
      <point x="151" y="1028" type="line" smooth="yes"/>
      <point x="97" y="1028"/>
      <point x="51" y="982"/>
      <point x="51" y="928" type="curve" smooth="yes"/>
      <point x="51" y="904"/>
      <point x="60" y="882"/>
      <point x="75" y="864" type="curve"/>
      <point x="60" y="846"/>
      <point x="50" y="824"/>
      <point x="50" y="799" type="curve" smooth="yes"/>
      <point x="50" y="229" type="line" smooth="yes"/>
      <point x="50" y="176"/>
      <point x="93" y="132"/>
      <point x="145" y="129" type="curve" smooth="yes"/>
      <point x="744" y="99" type="line" smooth="yes"/>
      <point x="802" y="96"/>
      <point x="849" y="141"/>
    </contour>
    <contour>
      <point x="649" y="799" type="curve" smooth="yes"/>
      <point x="649" y="304" type="line"/>
      <point x="250" y="324" type="line"/>
      <point x="250" y="799" type="line" smooth="yes"/>
      <point x="250" y="809"/>
      <point x="248" y="819"/>
      <point x="245" y="828" type="curve"/>
      <point x="654" y="828" type="line"/>
      <point x="651" y="819"/>
      <point x="649" y="809"/>
    </contour>
  </outline>
</glyph>
<glyph name="acircumflex" format="1">
  <advance width="900"/>
  <unicode hex="00E2"/>
  <outline>
    <contour>
      <point x="750" y="-104" type="curve" smooth="yes"/>
      <point x="804" y="-104"/>
      <point x="850" y="-58"/>
      <point x="850" y="-4" type="curve" smooth="yes"/>
      <point x="850" y="360" type="line" smooth="yes"/>
      <point x="850" y="382"/>
      <point x="838" y="412"/>
      <point x="823" y="428" type="curve" smooth="yes"/>
      <point x="455" y="828" type="line"/>
      <point x="750" y="828" type="line" smooth="yes"/>
      <point x="804" y="828"/>
      <point x="850" y="874"/>
      <point x="850" y="928" type="curve" smooth="yes"/>
      <point x="850" y="982"/>
      <point x="804" y="1028"/>
      <point x="750" y="1028" type="curve" smooth="yes"/>
      <point x="150" y="1028" type="line" smooth="yes"/>
      <point x="96" y="1028"/>
      <point x="50" y="982"/>
      <point x="50" y="928" type="curve" smooth="yes"/>
      <point x="50" y="874"/>
      <point x="96" y="828"/>
      <point x="150" y="828" type="curve" smooth="yes"/>
      <point x="253" y="828" type="line"/>
      <point x="253" y="827" type="line" smooth="yes"/>
      <point x="67" y="257" type="line" smooth="yes"/>
      <point x="42" y="178"/>
      <point x="101" y="111"/>
      <point x="182" y="128" type="curve" smooth="yes"/>
      <point x="650" y="224" type="line"/>
      <point x="650" y="-4" type="line" smooth="yes"/>
      <point x="650" y="-58"/>
      <point x="696" y="-104"/>
    </contour>
    <contour>
      <point x="311" y="358" type="line"/>
      <point x="390" y="603" type="line"/>
      <point x="567" y="411" type="line"/>
    </contour>
  </outline>
</glyph>
<glyph name="atilde" format="1">
  <advance width="900"/>
  <unicode hex="00E3"/>
  <outline>
    <contour>
      <point x="750" y="-104" type="curve" smooth="yes"/>
      <point x="804" y="-104"/>
      <point x="850" y="-58"/>
      <point x="850" y="-4" type="curve" smooth="yes"/>
      <point x="850" y="360" type="line" smooth="yes"/>
      <point x="850" y="382"/>
      <point x="838" y="412"/>
      <point x="823" y="428" type="curve" smooth="yes"/>
      <point x="421" y="864" type="line" smooth="yes"/>
      <point x="419" y="867"/>
      <point x="416" y="869"/>
      <point x="414" y="871" type="curve"/>
      <point x="755" y="930" type="line" smooth="yes"/>
      <point x="796" y="936"/>
      <point x="833" y="975"/>
      <point x="838" y="1016" type="curve" smooth="yes"/>
      <point x="849" y="1116" type="line" smooth="yes"/>
      <point x="856" y="1170"/>
      <point x="815" y="1221"/>
      <point x="762" y="1227" type="curve" smooth="yes"/>
      <point x="708" y="1234"/>
      <point x="657" y="1193"/>
      <point x="651" y="1140" type="curve" smooth="yes"/>
      <point x="648" y="1114" type="line"/>
      <point x="133" y="1027" type="line" smooth="yes"/>
      <point x="80" y="1018"/>
      <point x="42" y="964"/>
      <point x="51" y="911" type="curve" smooth="yes"/>
      <point x="60" y="858"/>
      <point x="114" y="820"/>
      <point x="167" y="829" type="curve" smooth="yes"/>
      <point x="261" y="845" type="line"/>
      <point x="258" y="840"/>
      <point x="255" y="834"/>
      <point x="253" y="827" type="curve" smooth="yes"/>
      <point x="67" y="257" type="line" smooth="yes"/>
      <point x="42" y="178"/>
      <point x="101" y="111"/>
      <point x="182" y="128" type="curve" smooth="yes"/>
      <point x="650" y="224" type="line"/>
      <point x="650" y="-4" type="line" smooth="yes"/>
      <point x="650" y="-58"/>
      <point x="696" y="-104"/>
    </contour>
    <contour>
      <point x="311" y="358" type="line"/>
      <point x="390" y="603" type="line"/>
      <point x="567" y="411" type="line"/>
    </contour>
  </outline>
</glyph>
<glyph name="ccedilla" format="1">
  <advance width="895"/>
  <unicode hex="00E7"/>
  <outline>
    <contour>
      <point x="347" y="18" type="curve" smooth="yes"/>
      <point x="765" y="103" type="line" smooth="yes"/>
      <point x="818" y="114"/>
      <point x="854" y="168"/>
      <point x="843" y="221" type="curve" smooth="yes"/>
      <point x="832" y="274"/>
      <point x="778" y="310"/>
      <point x="725" y="299" type="curve" smooth="yes"/>
      <point x="396" y="232" type="line"/>
      <point x="293" y="565" type="line"/>
      <point x="731" y="502" type="line" smooth="yes"/>
      <point x="784" y="494"/>
      <point x="836" y="533"/>
      <point x="844" y="587" type="curve" smooth="yes"/>
      <point x="852" y="640"/>
      <point x="813" y="692"/>
      <point x="759" y="700" type="curve" smooth="yes"/>
      <point x="166" y="786" type="line" smooth="yes"/>
      <point x="87" y="797"/>
      <point x="32" y="733"/>
      <point x="56" y="658" type="curve" smooth="yes"/>
      <point x="231" y="87" type="line" smooth="yes"/>
      <point x="246" y="39"/>
      <point x="298" y="8"/>
    </contour>
  </outline>
</glyph>
<glyph name="egrave" format="1">
  <advance width="904"/>
  <unicode hex="00E8"/>
  <outline>
    <contour>
      <point x="532" y="873" type="curve" smooth="yes"/>
      <point x="562" y="917"/>
      <point x="549" y="981"/>
      <point x="504" y="1011" type="curve" smooth="yes"/>
      <point x="204" y="1211" type="line" smooth="yes"/>
      <point x="160" y="1241"/>
      <point x="96" y="1228"/>
      <point x="66" y="1183" type="curve" smooth="yes"/>
      <point x="36" y="1139"/>
      <point x="49" y="1075"/>
      <point x="94" y="1045" type="curve" smooth="yes"/>
      <point x="394" y="845" type="line" smooth="yes"/>
      <point x="438" y="815"/>
      <point x="502" y="828"/>
    </contour>
    <contour>
      <point x="626" y="-71" type="curve" smooth="yes"/>
      <point x="824" y="125" type="line" smooth="yes"/>
      <point x="863" y="163"/>
      <point x="863" y="228"/>
      <point x="825" y="266" type="curve" smooth="yes"/>
      <point x="787" y="305"/>
      <point x="722" y="305"/>
      <point x="684" y="267" type="curve" smooth="yes"/>
      <point x="556" y="141" type="line"/>
      <point x="378" y="324" type="line"/>
      <point x="794" y="511" type="line" smooth="yes"/>
      <point x="843" y="533"/>
      <point x="866" y="594"/>
      <point x="844" y="643" type="curve" smooth="yes"/>
      <point x="822" y="692"/>
      <point x="761" y="715"/>
      <point x="712" y="693" type="curve" smooth="yes"/>
      <point x="165" y="448" type="line" smooth="yes"/>
      <point x="97" y="418"/>
      <point x="83" y="341"/>
      <point x="134" y="287" type="curve" smooth="yes"/>
      <point x="482" y="-70" type="line" smooth="yes"/>
      <point x="501" y="-89"/>
      <point x="528" y="-99"/>
      <point x="554" y="-99" type="curve"/>
      <point x="555" y="-99"/>
      <point x="555" y="-99"/>
      <point x="556" y="-99" type="curve"/>
      <point x="556" y="-99"/>
      <point x="557" y="-99"/>
      <point x="557" y="-99" type="curve"/>
      <point x="582" y="-99"/>
      <point x="607" y="-90"/>
    </contour>
  </outline>
</glyph>
<glyph name="ntilde" format="1">
  <advance width="904"/>
  <unicode hex="00F1"/>
  <outline>
    <contour>
      <point x="171" y="829" type="curve" smooth="yes"/>
      <point x="759" y="930" type="line" smooth="yes"/>
      <point x="800" y="936"/>
      <point x="837" y="975"/>
      <point x="842" y="1016" type="curve" smooth="yes"/>
      <point x="853" y="1116" type="line" smooth="yes"/>
      <point x="860" y="1170"/>
      <point x="819" y="1221"/>
      <point x="766" y="1227" type="curve" smooth="yes"/>
      <point x="712" y="1234"/>
      <point x="661" y="1193"/>
      <point x="655" y="1140" type="curve" smooth="yes"/>
      <point x="652" y="1114" type="line"/>
      <point x="137" y="1027" type="line" smooth="yes"/>
      <point x="84" y="1018"/>
      <point x="46" y="964"/>
      <point x="55" y="911" type="curve" smooth="yes"/>
      <point x="64" y="858"/>
      <point x="118" y="820"/>
    </contour>
    <contour>
      <point x="250" y="-1" type="curve" smooth="yes"/>
      <point x="250" y="154" type="line"/>
      <point x="440" y="504" type="line"/>
      <point x="665" y="146" type="line" smooth="yes"/>
      <point x="723" y="54"/>
      <point x="850" y="91"/>
      <point x="850" y="199" type="curve" smooth="yes"/>
      <point x="850" y="799" type="line" smooth="yes"/>
      <point x="850" y="853"/>
      <point x="804" y="899"/>
      <point x="750" y="899" type="curve" smooth="yes"/>
      <point x="696" y="899"/>
      <point x="650" y="853"/>
      <point x="650" y="799" type="curve" smooth="yes"/>
      <point x="650" y="546" type="line"/>
      <point x="519" y="755" type="line" smooth="yes"/>
      <point x="475" y="825"/>
      <point x="386" y="823"/>
      <point x="346" y="750" type="curve" smooth="yes"/>
      <point x="62" y="227" type="line" smooth="yes"/>
      <point x="55" y="214"/>
      <point x="50" y="193"/>
      <point x="50" y="179" type="curve" smooth="yes"/>
      <point x="50" y="-1" type="line" smooth="yes"/>
      <point x="50" y="-55"/>
      <point x="96" y="-101"/>
      <point x="150" y="-101" type="curve" smooth="yes"/>
      <point x="204" y="-101"/>
      <point x="250" y="-55"/>
    </contour>
  </outline>
</glyph>
<glyph name="oacute" format="1">
  <advance width="898"/>
  <unicode hex="00F3"/>
  <outline>
    <contour>
      <point x="364" y="873" type="curve" smooth="yes"/>
      <point x="394" y="828"/>
      <point x="458" y="815"/>
      <point x="502" y="845" type="curve" smooth="yes"/>
      <point x="802" y="1045" type="line" smooth="yes"/>
      <point x="847" y="1075"/>
      <point x="860" y="1139"/>
      <point x="830" y="1183" type="curve" smooth="yes"/>
      <point x="800" y="1228"/>
      <point x="736" y="1241"/>
      <point x="692" y="1211" type="curve" smooth="yes"/>
      <point x="392" y="1011" type="line" smooth="yes"/>
      <point x="347" y="981"/>
      <point x="334" y="917"/>
    </contour>
    <contour>
      <point x="489" y="124" type="line"/>
      <point x="253" y="209" type="line"/>
      <point x="271" y="602" type="line"/>
      <point x="619" y="494" type="line"/>
    </contour>
    <contour>
      <point x="645" y="-34" type="curve" smooth="yes"/>
      <point x="842" y="526" type="line" smooth="yes"/>
      <point x="861" y="580"/>
      <point x="832" y="638"/>
      <point x="778" y="655" type="curve" smooth="yes"/>
      <point x="207" y="832" type="line" smooth="yes"/>
      <point x="141" y="852"/>
      <point x="80" y="810"/>
      <point x="77" y="741" type="curve" smooth="yes"/>
      <point x="50" y="144" type="line" smooth="yes"/>
      <point x="48" y="104"/>
      <point x="78" y="60"/>
      <point x="116" y="46" type="curve" smooth="yes"/>
      <point x="507" y="-95" type="line" smooth="yes"/>
      <point x="519" y="-100"/>
      <point x="532" y="-101"/>
      <point x="545" y="-101" type="curve"/>
      <point x="588" y="-103"/>
      <point x="631" y="-76"/>
    </contour>
  </outline>
</glyph>
<glyph name="ugrave" format="1">
  <advance width="899"/>
  <unicode hex="00F9"/>
  <outline>
    <contour>
      <point x="534" y="873" type="curve" smooth="yes"/>
      <point x="564" y="917"/>
      <point x="551" y="981"/>
      <point x="506" y="1011" type="curve" smooth="yes"/>
      <point x="206" y="1211" type="line" smooth="yes"/>
      <point x="162" y="1241"/>
      <point x="98" y="1228"/>
      <point x="68" y="1183" type="curve" smooth="yes"/>
      <point x="38" y="1139"/>
      <point x="51" y="1075"/>
      <point x="96" y="1045" type="curve" smooth="yes"/>
      <point x="396" y="845" type="line" smooth="yes"/>
      <point x="440" y="815"/>
      <point x="504" y="828"/>
    </contour>
    <contour>
      <point x="849" y="199" type="curve" smooth="yes"/>
      <point x="849" y="799" type="line" smooth="yes"/>
      <point x="849" y="853"/>
      <point x="803" y="899"/>
      <point x="749" y="899" type="curve" smooth="yes"/>
      <point x="695" y="899"/>
      <point x="649" y="853"/>
      <point x="649" y="799" type="curve" smooth="yes"/>
      <point x="649" y="304" type="line"/>
      <point x="250" y="324" type="line"/>
      <point x="250" y="799" type="line" smooth="yes"/>
      <point x="250" y="853"/>
      <point x="204" y="899"/>
      <point x="150" y="899" type="curve" smooth="yes"/>
      <point x="96" y="899"/>
      <point x="50" y="853"/>
      <point x="50" y="799" type="curve" smooth="yes"/>
      <point x="50" y="229" type="line" smooth="yes"/>
      <point x="50" y="176"/>
      <point x="93" y="132"/>
      <point x="145" y="129" type="curve" smooth="yes"/>
      <point x="744" y="99" type="line" smooth="yes"/>
      <point x="802" y="96"/>
      <point x="849" y="141"/>
    </contour>
  </outline>
</glyph>
<glyph name="circumflex" format="1">
  <advance width="900"/>
  <unicode hex="02C6"/>
  <outline>
    <contour>
      <point x="50" y="928" type="curve" smooth="yes"/>
      <point x="50" y="874"/>
      <point x="96" y="828"/>
      <point x="150" y="828" type="curve" smooth="yes"/>
      <point x="750" y="828" type="line" smooth="yes"/>
      <point x="804" y="828"/>
      <point x="850" y="874"/>
      <point x="850" y="928" type="curve" smooth="yes"/>
      <point x="850" y="982"/>
      <point x="804" y="1028"/>
      <point x="750" y="1028" type="curve" smooth="yes"/>
      <point x="150" y="1028" type="line" smooth="yes"/>
      <point x="96" y="1028"/>
      <point x="50" y="982"/>
    </contour>
  </outline>
</glyph>
<glyph name="tilde" format="1">
  <advance width="900"/>
  <unicode hex="02DC"/>
  <outline>
    <contour>
      <point x="167" y="829" type="curve" smooth="yes"/>
      <point x="755" y="930" type="line" smooth="yes"/>
      <point x="796" y="936"/>
      <point x="833" y="975"/>
      <point x="838" y="1016" type="curve" smooth="yes"/>
      <point x="849" y="1116" type="line" smooth="yes"/>
      <point x="856" y="1170"/>
      <point x="815" y="1221"/>
      <point x="762" y="1227" type="curve" smooth="yes"/>
      <point x="708" y="1234"/>
      <point x="657" y="1193"/>
      <point x="651" y="1140" type="curve" smooth="yes"/>
      <point x="648" y="1114" type="line"/>
      <point x="133" y="1027" type="line" smooth="yes"/>
      <point x="80" y="1018"/>
      <point x="42" y="964"/>
      <point x="51" y="911" type="curve" smooth="yes"/>
      <point x="60" y="858"/>
      <point x="114" y="820"/>
    </contour>
  </outline>
</glyph>
